<svg width="1490" height="1490" xmlns="http://www.w3.org/2000/svg" version="1.1">
 <g>
  <title>Layer 1</title>
  <ellipse stroke="null" ry="744" rx="744" id="svg_2" cy="745" cx="745.39997" fill="#000000"/>
  <path d="m-1163.43144,-553.23938c2.25074,0.26714 4.50273,0.521 6.75519,0.77325c87.71841,9.93176 172.3473,35.20979 324.37842,116.47998c1.04873,0.6799 1.04873,0.6799 2.11865,1.37354c25.80726,16.77311 50.5545,35.55391 73.88135,55.62646c0.60489,0.51853 1.20978,1.03706 1.833,1.57129c11.22091,9.62371 22.30673,19.33838 32.62012,29.94434c2.07477,2.02385 4.18026,3.90572 6.37891,5.78906c4.15953,3.60837 7.88898,7.51344 11.60547,11.57031c4.06871,4.39914 8.139,8.75988 12.4375,12.9375c3.91577,3.85733 7.3189,8.02364 10.75,12.3125c2.47875,3.00061 5.08928,5.85016 7.75,8.6875c5.44932,5.84556 10.33457,12.05112 15.21142,18.37549c1.89852,2.43365 3.84689,4.82508 5.79419,7.21973c6.63683,8.18192 12.84914,16.63126 18.9397,25.22559c1.68699,2.37698 3.38611,4.74497 5.08594,7.11279c50.88002,71.29964 88.30444,153.17425 130.37371,347.268c0.21695,1.95806 0.44716,3.91464 0.67756,5.87116c5.64207,48.71412 5.61204,101.28677 -0.20429,149.98114c-0.26714,2.25074 -0.521,4.50273 -0.77325,6.75519c-9.93176,87.71841 -35.20979,172.3473 -116.47998,324.37841c-0.45327,0.69916 -0.90654,1.39832 -1.37354,2.11866c-16.77311,25.80726 -35.55391,50.5545 -55.62646,73.88134c-0.51853,0.6049 -1.03705,1.20979 -1.57129,1.83301c-9.62371,11.2209 -19.33837,22.30673 -29.94434,32.62012c-2.02385,2.07476 -3.90572,4.18025 -5.78906,6.37891c-3.60836,4.15953 -7.51344,7.88898 -11.57031,11.60546c-4.39914,4.06872 -8.75988,8.13901 -12.9375,12.4375c-3.85733,3.91578 -8.02364,7.31891 -12.3125,10.75c-3.00061,2.47876 -5.85016,5.08929 -8.6875,7.75c-5.84555,5.44933 -12.05112,10.33458 -18.37549,15.21143c-2.43365,1.89852 -4.82508,3.84689 -7.21973,5.79419c-8.18192,6.63683 -16.63125,12.84914 -25.22558,18.9397c-2.37699,1.68699 -4.74498,3.38611 -7.1128,5.08593c-71.29964,50.88003 -153.17425,88.30445 -347.268,130.37372c-1.95806,0.21695 -3.91464,0.44716 -5.87116,0.67755c-48.71412,5.64208 -101.28677,5.61205 -149.98114,-0.20428c-2.25074,-0.26714 -4.50273,-0.521 -6.75519,-0.77325c-87.71841,-9.93176 -172.34729,-35.20979 -324.37841,-116.47999c-1.04874,-0.6799 -1.04874,-0.6799 -2.11866,-1.37353c-25.80726,-16.77311 -50.5545,-35.55391 -73.88134,-55.62647c-0.90734,-0.77778 -0.90734,-0.77778 -1.83301,-1.57128c-11.2209,-9.62371 -22.30673,-19.33838 -32.62012,-29.94434c-2.07476,-2.02385 -4.18025,-3.90572 -6.37891,-5.78906c-4.15953,-3.60837 -7.88898,-7.51344 -11.60546,-11.57032c-4.06871,-4.39913 -8.13901,-8.75987 -12.4375,-12.9375c-3.91578,-3.85732 -7.31891,-8.02363 -10.75,-12.3125c-2.47876,-3.0006 -5.08929,-5.85015 -7.75,-8.6875c-5.44933,-5.84555 -10.33458,-12.05111 -15.21143,-18.37548c-1.89852,-2.43365 -3.84689,-4.82508 -5.79419,-7.21973c-6.63683,-8.18192 -12.84914,-16.63126 -18.9397,-25.22559c-1.68699,-2.37698 -3.38611,-4.74497 -5.08593,-7.11279c-50.88003,-71.29964 -88.30445,-153.17425 -130.37372,-347.268c-0.21695,-1.95806 -0.44716,-3.91464 -0.67755,-5.87116c-5.64208,-48.71412 -5.61205,-101.28677 0.20428,-149.98114c0.26714,-2.25074 0.521,-4.50273 0.77326,-6.75519c9.93175,-87.71841 35.20978,-172.3473 116.47998,-324.37842c0.45326,-0.69915 0.90653,-1.39831 1.37353,-2.11865c16.77311,-25.80726 35.55391,-50.5545 55.62647,-73.88135c0.51852,-0.60489 1.03705,-1.20978 1.57129,-1.833c9.6237,-11.2209 19.33837,-22.30673 29.94433,-32.62012c2.02385,-2.07476 3.90572,-4.18025 5.78906,-6.37891c3.60837,-4.15953 7.51344,-7.88898 11.57032,-11.60547c4.39913,-4.06871 8.75987,-8.139 12.9375,-12.4375c3.85732,-3.91577 8.02363,-7.3189 12.3125,-10.75c3.0006,-2.47875 5.85015,-5.08928 8.6875,-7.75c5.84555,-5.44932 12.05111,-10.33457 18.37548,-15.21142c2.43365,-1.89852 4.82508,-3.84689 7.21973,-5.79419c8.18192,-6.63683 16.63126,-12.84914 25.22559,-18.9397c2.37699,-1.68699 4.74497,-3.38611 7.11279,-5.08594c71.29965,-50.88002 153.17426,-88.30444 347.26801,-130.37371c1.95805,-0.21695 3.91463,-0.44716 5.87115,-0.67755c48.71412,-5.64208 101.28677,-5.61205 149.98114,0.20428z" fill="#000000" id="svg_1"/>
  <path d="m933,87c0.67835,0.20229 1.3567,0.40458 2.0556,0.61301c33.94575,10.13822 66.86268,22.33416 98.9444,37.38699c1.09232,0.50773 2.18464,1.01546 3.31006,1.53857c28.06962,13.07117 55.0633,28.17773 80.88672,45.26954c1.62333,1.07299 3.25386,2.13508 4.88525,3.1958c9.19144,6.02284 18.0592,12.49838 26.91797,18.99609c0.69706,0.51111 1.39412,1.02223 2.1123,1.54883c12.97392,9.54531 25.6744,19.43998 37.53614,30.34961c2.52583,2.2573 5.14041,4.3651 7.78906,6.47656c4.92696,3.98054 9.36995,8.3027 13.76172,12.85156c2.14106,2.12016 4.28759,4.08901 6.56641,6.05078c4.63962,4.01726 8.96985,8.31112 13.29687,12.66016c0.76377,0.7599 1.52754,1.5198 2.31445,2.30273c4.19502,4.20219 8.2265,8.48356 12.07642,13.00489c1.56729,1.77832 3.21229,3.42611 4.92163,5.06738c3.74356,3.67686 6.95796,7.71889 10.24219,11.80469c2.35298,2.84672 4.80546,5.55375 7.32031,8.25781c4.90845,5.34644 9.32432,10.99914 13.6792,16.7959c1.47977,1.95665 2.97827,3.89781 4.48096,5.83691c11.26604,14.56087 21.8637,29.56011 31.90234,44.99219c0.44779,0.68691 0.89558,1.37382 1.35693,2.08154c36.1739,55.73823 64.41632,116.99633 82.64307,180.91846c0.28972,1.01208 0.57943,2.02415 0.87793,3.06689c4.45952,15.71533 8.18189,31.53187 11.43115,47.53956c0.65245,3.20461 1.32489,6.40448 1.99951,9.60449c5.53598,26.85367 9.07448,54.41867 10.69141,81.78906c0.04064,0.66011 0.08127,1.32022 0.12314,2.00034c3.96712,65.61938 -0.6708,131.82126 -15.12314,195.99966c-0.30502,1.37068 -0.30502,1.37068 -0.61621,2.76904c-0.61631,2.74648 -1.24574,5.48946 -1.88379,8.23096c-0.26611,1.14674 -0.26611,1.14674 -0.5376,2.31665c-2.00342,8.31536 -4.50791,16.49275 -6.9624,24.68335c-0.2022,0.67781 -0.4044,1.35561 -0.61273,2.05396c-10.13801,33.94639 -22.3342,66.86381 -37.38727,98.94604c-0.76159,1.63848 -0.76159,1.63848 -1.53857,3.31006c-13.07117,28.06962 -28.17773,55.0633 -45.26954,80.88672c-1.07299,1.62333 -2.13508,3.25386 -3.1958,4.88525c-6.02284,9.19144 -12.49838,18.0592 -18.99609,26.91797c-0.51111,0.69706 -1.02223,1.39412 -1.54883,2.1123c-9.54428,12.97251 -19.43815,25.67101 -30.3457,37.53223c-2.27795,2.54843 -4.40918,5.18545 -6.54297,7.85547c-3.73262,4.61854 -7.72861,8.80446 -12.00781,12.91797c-2.01394,2.03549 -3.87585,4.08556 -5.73828,6.25391c-4.35609,5.02584 -9.04231,9.70022 -13.75391,14.39062c-0.85529,0.85916 -1.71059,1.71832 -2.5918,2.60352c-4.42301,4.41626 -8.90873,8.68606 -13.65014,12.75854c-2.78226,2.40766 -5.45003,4.93354 -8.13306,7.45044c-4.83321,4.50023 -9.78884,8.77806 -14.95703,12.89453c-2.23095,1.82242 -4.38863,3.68717 -6.54297,5.59766c-3.98872,3.50728 -8.13456,6.74996 -12.375,9.94531c-1.50676,1.1416 -3.01327,2.28353 -4.51953,3.42578c-0.73299,0.5551 -1.46599,1.11021 -2.22119,1.68213c-1.81075,1.38057 -3.60756,2.7758 -5.396,4.18506c-19.38684,15.21656 -40.38629,28.80908 -61.66748,41.22266c-1.39959,0.81668 -2.79688,1.6373 -4.19238,2.46093c-56.21991,33.13318 -117.52737,57.81207 -180.81592,73.71094c-0.77263,0.19707 -1.54526,0.39413 -2.34131,0.59717c-29.87795,7.53062 -61.03286,12.25533 -91.65869,15.40283c-0.71581,0.07412 -1.43162,0.14824 -2.16913,0.22461c-79.56927,8.11538 -161.38793,1.70421 -238.83087,-18.22461c-0.77457,-0.19916 -1.54913,-0.39832 -2.34717,-0.60352c-5.24708,-1.36788 -10.45399,-2.85612 -15.65283,-4.39648c-1.0248,-0.30245 -2.04961,-0.60489 -3.10547,-0.9165c-37.2104,-11.06357 -72.82475,-25.42939 -107.89453,-42.0835c-1.33321,-0.63156 -1.33321,-0.63156 -2.69336,-1.27588c-13.31739,-6.35416 -26.00083,-13.6535 -38.68506,-21.18066c-3.3272,-1.9589 -6.68909,-3.84671 -10.05908,-5.73096c-7.40551,-4.21239 -14.51973,-8.85284 -21.63037,-13.54004c-1.6777,-1.1049 -3.36106,-2.20117 -5.04541,-3.2959c-9.17973,-6.01824 -18.03786,-12.48612 -26.88672,-18.97656c-0.69706,-0.51111 -1.39412,-1.02223 -2.1123,-1.54883c-12.97251,-9.54428 -25.67101,-19.43815 -37.53223,-30.3457c-2.54843,-2.27795 -5.18545,-4.40918 -7.85547,-6.54297c-4.61854,-3.73262 -8.80446,-7.72861 -12.91797,-12.00781c-2.03549,-2.01394 -4.08556,-3.87585 -6.25391,-5.73828c-5.02584,-4.35609 -9.70022,-9.04231 -14.39062,-13.75391c-0.85916,-0.85529 -1.71832,-1.71059 -2.60352,-2.5918c-4.41626,-4.42301 -8.68606,-8.90873 -12.75854,-13.65014c-2.40766,-2.78226 -4.93354,-5.45003 -7.45044,-8.13306c-4.50023,-4.83321 -8.77806,-9.78884 -12.89453,-14.95703c-1.82242,-2.23095 -3.68717,-4.38863 -5.59766,-6.54297c-3.50728,-3.98872 -6.74996,-8.13456 -9.94531,-12.375c-1.1416,-1.50676 -2.28353,-3.01327 -3.42578,-4.51953c-0.83266,-1.09949 -0.83266,-1.09949 -1.68213,-2.22119c-1.38057,-1.81075 -2.7758,-3.60756 -4.18506,-5.396c-15.21656,-19.38684 -28.80908,-40.38629 -41.22266,-61.66748c-0.81668,-1.39959 -1.6373,-2.79688 -2.46093,-4.19238c-33.13318,-56.21991 -57.81207,-117.52737 -73.71094,-180.81592c-0.19707,-0.77263 -0.39413,-1.54526 -0.59717,-2.34131c-7.53062,-29.87795 -12.25533,-61.03286 -15.40283,-91.65869c-0.07412,-0.71581 -0.14824,-1.43162 -0.22461,-2.16913c-8.11538,-79.56927 -1.70421,-161.38793 18.22461,-238.83087c0.19916,-0.77457 0.39832,-1.54913 0.60352,-2.34717c1.36788,-5.24708 2.85612,-10.45399 4.39648,-15.65283c0.30245,-1.0248 0.60489,-2.04961 0.9165,-3.10547c11.06357,-37.2104 25.42939,-72.82475 42.0835,-107.89453c0.63156,-1.33321 0.63156,-1.33321 1.27588,-2.69336c6.35416,-13.31739 13.6535,-26.00083 21.18066,-38.68506c1.9589,-3.3272 3.84671,-6.68909 5.73096,-10.05908c4.21239,-7.40551 8.85284,-14.51973 13.54004,-21.63037c1.1049,-1.6777 2.20117,-3.36106 3.2959,-5.04541c6.01824,-9.17973 12.48612,-18.03786 18.97656,-26.88672c0.51111,-0.69706 1.02223,-1.39412 1.54883,-2.1123c9.54324,-12.9711 19.43632,-25.66762 30.34179,-37.52832c2.29863,-2.57106 4.45326,-5.23045 6.60938,-7.92188c3.484,-4.30948 7.15968,-8.24628 11.16406,-12.07422c1.92684,-1.94939 3.70456,-3.9272 5.48828,-6.0039c4.36822,-5.03481 9.0631,-9.72108 13.78516,-14.42188c1.28294,-1.28874 1.28294,-1.28874 2.5918,-2.60352c4.45085,-4.44406 8.9562,-8.75022 13.75097,-12.82251c1.76802,-1.55391 3.40235,-3.18916 5.03223,-4.88647c3.67686,-3.74356 7.71889,-6.95796 11.80469,-10.24219c2.84672,-2.35298 5.55375,-4.80546 8.25781,-7.32031c5.34644,-4.90845 10.99914,-9.32432 16.7959,-13.6792c1.95665,-1.47977 3.89781,-2.97827 5.83691,-4.48096c14.56087,-11.26604 29.56011,-21.8637 44.99219,-31.90234c0.68691,-0.44779 1.37382,-0.89558 2.08154,-1.35693c55.73823,-36.1739 116.99633,-64.41632 180.91846,-82.64307c1.51811,-0.43458 1.51811,-0.43458 3.06689,-0.87793c15.71533,-4.45952 31.53187,-8.18189 47.53956,-11.43115c3.20461,-0.65245 6.40448,-1.32489 9.60449,-1.99951c26.85457,-5.53617 54.41811,-9.07123 81.78906,-10.69141c0.98568,-0.06145 0.98568,-0.06145 1.99127,-0.12415c78.44631,-4.80821 158.58327,2.54881 234.00873,25.12415zm-333,3c-1.21671,0.27457 -2.43343,0.54914 -3.68701,0.83203c-15.7556,3.59753 -31.32548,7.6943 -46.78565,12.40088c-2.20343,0.66878 -4.41064,1.32123 -6.62109,1.96631c-74.26213,22.23183 -144.65714,60.73075 -205.90625,107.80078c-0.60538,0.46503 -1.21075,0.93006 -1.83447,1.40918c-8.00634,6.17268 -15.81481,12.55157 -23.47949,19.14307c-1.74082,1.49479 -3.48864,2.98111 -5.23682,4.46728c-14.29301,12.20353 -27.77071,25.21602 -41.07422,38.48047c-0.51537,0.51269 -1.03075,1.02539 -1.56174,1.55362c-5.82563,5.80259 -11.47298,11.69146 -16.81326,17.94638c-1.45446,1.60768 -2.91221,3.2124 -4.375,4.8125c-3.91877,4.34314 -7.6464,8.81133 -11.32422,13.35938c-2.31659,2.84755 -4.68052,5.65016 -7.05078,8.45312c-10.23433,12.27803 -19.66586,25.14702 -28.78247,38.26953c-1.04267,1.49593 -2.09132,2.9877 -3.14404,4.47656c-16.50253,23.37611 -30.78811,48.22217 -43.79248,73.68457c-1.43615,2.7619 -2.91495,5.49791 -4.40258,8.23232c-4.57161,8.43655 -8.5987,17.04734 -12.44093,25.83702c-0.3191,0.72546 -0.63821,1.45092 -0.96698,2.19836c-10.24335,23.3264 -19.45227,47.2542 -26.72052,71.67664c-0.55107,1.80404 -0.55107,1.80404 -1.11328,3.64453c-11.17341,36.86532 -18.72438,74.35624 -23.51172,112.54297c-0.1045,0.81681 -0.20901,1.63362 -0.31668,2.47519c-3.21216,25.29479 -4.44773,50.6 -4.37082,76.08731c0.00182,1.27105 0.00365,2.54209 0.00552,3.85165c0.1556,64.98143 8.69404,130.79331 28.49253,192.82706c0.76546,2.41664 1.50575,4.83923 2.23632,7.2666c11.54843,38.06175 27.12399,76.18859 46.34522,111.0669c1.32506,2.40504 2.63302,4.81894 3.93994,7.23388c16.77346,30.8833 35.87337,60.13201 57.29297,88.00391c0.69754,0.90806 0.69754,0.90806 1.40918,1.83447c6.17268,8.00634 12.55157,15.81481 19.14307,23.47949c1.49479,1.74082 2.98111,3.48864 4.46728,5.23682c12.20353,14.29301 25.21602,27.77071 38.48047,41.07422c0.51269,0.51537 1.02539,1.03075 1.55362,1.56174c5.80259,5.82563 11.69146,11.47298 17.94638,16.81326c1.60768,1.45446 3.2124,2.91221 4.8125,4.375c4.34314,3.91877 8.81133,7.6464 13.35937,11.32422c2.84756,2.31659 5.65017,4.68052 8.45313,7.05078c12.27803,10.23433 25.14702,19.66586 38.26953,28.78247c1.49593,1.04267 2.9877,2.09132 4.47656,3.14404c23.37611,16.50253 48.22217,30.78811 73.68457,43.79248c2.7619,1.43615 5.49791,2.91495 8.23232,4.40258c8.43655,4.57161 17.04734,8.5987 25.83702,12.44093c0.72546,0.3191 1.45092,0.63821 2.19836,0.96698c23.3264,10.24335 47.2542,19.45227 71.67664,26.72052c1.2027,0.36738 2.40539,0.73477 3.64453,1.11328c36.86532,11.17341 74.35624,18.72438 112.54297,23.51172c0.81681,0.1045 1.63362,0.20901 2.47519,0.31668c25.29479,3.21216 50.6,4.44773 76.08731,4.37082c1.27105,-0.00182 2.54209,-0.00365 3.85165,-0.00552c64.98143,-0.1556 130.79331,-8.69404 192.82706,-28.49253c2.41664,-0.76546 4.83923,-1.50575 7.2666,-2.23632c38.06175,-11.54843 76.18859,-27.12399 111.0669,-46.34522c2.40504,-1.32506 4.81894,-2.63302 7.23388,-3.93994c30.8833,-16.77346 60.13201,-35.87337 88.00391,-57.29297c0.90806,-0.69754 0.90806,-0.69754 1.83447,-1.40918c8.00634,-6.17268 15.81481,-12.55157 23.47949,-19.14307c1.74082,-1.49479 3.48864,-2.98111 5.23682,-4.46728c14.29301,-12.20353 27.77071,-25.21602 41.07422,-38.48047c0.77306,-0.76904 0.77306,-0.76904 1.56174,-1.55362c5.82563,-5.80259 11.47298,-11.69146 16.81326,-17.94638c1.45446,-1.60768 2.91221,-3.2124 4.375,-4.8125c3.91877,-4.34314 7.6464,-8.81133 11.32422,-13.35937c2.31659,-2.84756 4.68052,-5.65017 7.05078,-8.45313c10.23433,-12.27803 19.66586,-25.14702 28.78247,-38.26953c1.04267,-1.49593 2.09132,-2.9877 3.14404,-4.47656c16.59245,-23.50348 31.0162,-48.50192 44.04956,-74.12793c1.10278,-2.16498 2.21828,-4.32253 3.34034,-6.47754c11.47218,-22.22552 20.89391,-45.36919 29.69873,-68.75196c1.04485,-2.76808 2.10429,-5.52945 3.17627,-8.2871c2.72547,-7.04582 5.07836,-14.11421 7.07422,-21.40235c0.85441,-3.10911 1.75675,-6.19909 2.68481,-9.28686c1.12463,-3.75789 2.21241,-7.5263 3.29956,-11.29517c0.26184,-0.90138 0.52368,-1.80275 0.79346,-2.73145c12.31094,-42.75371 19.02169,-87.05592 21.94043,-131.39819c0.16163,-2.35076 0.34075,-4.70052 0.55175,-7.04736c5.26591,-60.41658 -0.92491,-123.79389 -14.28564,-182.823c-0.27457,-1.21671 -0.54914,-2.43343 -0.83203,-3.68701c-3.59753,-15.7556 -7.6943,-31.32548 -12.40088,-46.78565c-0.66878,-2.20343 -1.32123,-4.41064 -1.96631,-6.62109c-22.23183,-74.26213 -60.73075,-144.65714 -107.80078,-205.90625c-0.46503,-0.60538 -0.93006,-1.21075 -1.40918,-1.83447c-6.17268,-8.00634 -12.55157,-15.81481 -19.14307,-23.47949c-1.49479,-1.74082 -2.98111,-3.48864 -4.46728,-5.23682c-12.20353,-14.29301 -25.21602,-27.77071 -38.48047,-41.07422c-0.76904,-0.77306 -0.76904,-0.77306 -1.55362,-1.56174c-5.80259,-5.82563 -11.69146,-11.47298 -17.94638,-16.81326c-1.60768,-1.45446 -3.2124,-2.91221 -4.8125,-4.375c-4.34314,-3.91877 -8.81133,-7.6464 -13.35937,-11.32422c-2.84756,-2.31659 -5.65017,-4.68052 -8.45313,-7.05078c-12.27803,-10.23433 -25.14702,-19.66586 -38.26953,-28.78247c-1.49593,-1.04267 -2.9877,-2.09132 -4.47656,-3.14404c-23.50348,-16.59245 -48.50192,-31.0162 -74.12793,-44.04956c-2.16498,-1.10278 -4.32253,-2.21828 -6.47754,-3.34034c-22.22552,-11.47218 -45.36919,-20.89391 -68.75196,-29.69873c-2.76808,-1.04485 -5.52945,-2.10429 -8.2871,-3.17627c-7.04582,-2.72547 -14.11421,-5.07836 -21.40235,-7.07421c-3.10911,-0.85442 -6.19909,-1.75676 -9.28686,-2.68482c-3.75789,-1.12463 -7.5263,-2.21241 -11.29517,-3.29956c-0.90138,-0.26184 -1.80275,-0.52368 -2.73145,-0.79346c-42.75371,-12.31094 -87.05592,-19.02169 -131.39819,-21.94043c-2.35076,-0.16163 -4.70052,-0.34075 -7.04736,-0.55175c-60.41658,-5.26591 -123.79389,0.92491 -182.823,14.28564z" fill="#FAFAFA" id="svg_3"/>
  <path d="m748.26172,578.57031c3.26979,0.73522 6.50098,1.56343 9.73828,2.42969c0.81985,0.18176 1.63969,0.36351 2.48438,0.55078c12.3504,3.04615 24.20515,11.01111 33.51562,19.44922c1.2433,1.12148 1.2433,1.12148 2.51172,2.26562c15.43746,14.65731 26.91922,35.3625 27.83203,56.89844c0.56261,24.63432 -4.66587,44.99689 -17.18237,66.22583c-3.48829,5.96868 -5.8696,12.08451 -8.16138,18.61011c-0.35191,0.80051 -0.70383,1.60101 -1.0664,2.42578c-1.90784,5.26052 -2.07097,10.83265 -2.25,16.38281c-0.0419,1.24072 -0.08379,2.48145 -0.12696,3.75977c-0.03931,1.27681 -0.07863,2.55363 -0.11914,3.86914c-0.06477,1.95583 -0.06477,1.95583 -0.13086,3.95117c-0.10561,3.20368 -0.20772,6.40743 -0.30664,9.61133c1.09699,0.11601 2.19399,0.23203 3.32422,0.35156c4.47723,0.78982 5.8114,2.21118 8.67578,5.64844c2.48568,3.72851 2.64066,6.68151 2,11c-1.0192,2.83173 -2.15928,4.51254 -4,7c-2.475,0.99 -2.475,0.99 -5,2c0,7.26 0,14.52 0,22c5.94,0 11.88,0 18,0c0,8.91 0,17.82 0,27c-47.85,0 -95.7,0 -145,0c0,-8.91 0,-17.82 0,-27c5.94,0 11.88,0 18,0c0,-7.26 0,-14.52 0,-22c-1.65,-0.66 -3.3,-1.32 -5,-2c-2.90053,-2.38259 -3.79056,-4.48358 -4.30859,-8.23438c-0.29928,-5.84036 0.46663,-9.05876 4.3125,-13.48828c2.86463,-1.83314 5.65605,-1.95565 8.99609,-2.27734c0.00631,-3.83481 -0.05367,-7.66592 -0.125,-11.5c0.00258,-1.07766 0.00516,-2.15532 0.00781,-3.26563c-0.18884,-7.74262 -1.85591,-11.49295 -6.88281,-17.23437c-4.56066,-8.52381 -5.31216,-17.50871 -3.41016,-26.91797c5.49086,-17.94015 26.44912,-30.8076 42.15235,-39.62109c8.33244,-4.79747 10.86471,-12.85982 14.25781,-21.46094c-0.75926,0.49371 -1.51851,0.98742 -2.30078,1.49609c-0.99387,0.64067 -1.98773,1.28133 -3.01172,1.94141c-0.98613,0.63808 -1.97226,1.27617 -2.98828,1.93359c-4.54102,2.74038 -7.67465,2.63483 -12.88672,2.44141c-6.0823,-0.10106 -10.92955,0.3084 -15.8125,4.1875c-1.11375,1.36125 -1.11375,1.36125 -2.25,2.75c-3.8303,3.13388 -6.76792,2.94696 -11.60937,2.73828c-7.29709,-1.1345 -13.49393,-4.74824 -18.14063,-10.48828c-4.14545,-6.24639 -6.35443,-12.49229 -5,-20c3.89611,-6.00324 9.68414,-10.42328 15.375,-14.625c1.11774,-0.83858 1.11774,-0.83858 2.25806,-1.69409c14.32088,-10.68091 14.32088,-10.68091 17.36694,-10.68091c0.03867,-1.08668 0.03867,-1.08668 0.07813,-2.19531c0.46902,-7.99475 2.20518,-12.40907 8.10937,-17.92969c6.94204,-5.62749 13.98741,-7.50652 22.8125,-7.875c-0.495,-1.14469 -0.495,-1.14469 -1,-2.3125c-1.31055,-4.83265 -1.75616,-9.71145 -1,-14.6875c5.2201,-3.48007 11.25051,-2.48075 17.26172,-1.42969z" fill="#000000" id="svg_4"/>
  <path d="m774.14746,579.12891c10.94709,5.1475 19.92731,11.74716 28.85254,19.87109c0.99773,0.85659 0.99773,0.85659 2.01562,1.73047c14.76361,13.41833 24.88881,35.83609 26.98438,55.26953c1.3655,29.1066 -5.60362,51.85293 -19.48438,77.26563c-4.4559,8.23096 -8.64758,16.51033 -8.92968,26.00781c-0.05801,1.73057 -0.05801,1.73057 -0.11719,3.4961c-0.04641,1.7847 -0.04641,1.7847 -0.09375,3.60546c-0.05801,1.81952 -0.05801,1.81952 -0.11719,3.67579c-0.09395,2.98292 -0.17962,5.96584 -0.25781,8.94921c1.17611,0.437 1.17611,0.437 2.37598,0.88282c2.99267,1.27414 4.31011,2.63319 6.37402,5.11718c0.59297,0.70125 1.18594,1.4025 1.79687,2.125c3.95155,5.09877 3.07247,11.72203 2.45313,17.875c-1.6153,4.06236 -3.93623,6.93623 -7,10c-0.46163,2.43253 -0.46163,2.43253 -0.625,5.125c-0.12375,1.60875 -0.2475,3.2175 -0.375,4.875c5.94,0 11.88,0 18,0c0,14.19 0,28.38 0,43c-53.13,0 -106.26,0 -161,0c0,-14.19 0,-28.38 0,-43c5.94,0 11.88,0 18,0c0,-3.3 0,-6.6 0,-10c-1.32,-0.66 -2.64,-1.32 -4,-2c-1.23047,-1.58593 -1.23047,-1.58593 -2.1875,-3.375c-0.32356,-0.58523 -0.64711,-1.17046 -0.98047,-1.77343c-2.26831,-5.0478 -2.55932,-10.40917 -1.83203,-15.85157c2.3921,-5.81647 6.34451,-10.17225 12,-13c0.61862,-8.59198 1.02292,-15.31793 -4.39453,-22.46093c-4.11279,-6.50441 -5.14218,-13.33804 -5.04297,-20.91407c0.00902,-0.83072 0.01805,-1.66144 0.02734,-2.51733c0.34857,-12.40426 5.01284,-20.96668 13.90381,-29.54956c8.78839,-8.17605 18.72459,-16.16723 29.50635,-21.55811c-2.97463,-1.48731 -4.67279,-1.4313 -8,-1c-2.85539,1.76576 -5.41367,3.86465 -8,6c-4.15714,3.37065 -7.83012,3.50854 -13.02734,3.34766c-11.12766,-1.3014 -19.4389,-7.10132 -26.64844,-15.34375c-5.29903,-8.01889 -5.64426,-16.68625 -4.32422,-26.00391c1.21998,-3.65993 3.08676,-5.51854 6,-8c0.52642,-0.45181 1.05284,-0.90363 1.59521,-1.36914c8.38695,-7.12285 17.2537,-13.53013 26.40479,-19.63086c0.80155,-2.37742 0.80155,-2.37742 1.3125,-5.125c2.62129,-10.24442 8.79376,-15.55564 17.6875,-20.875c3.36336,-1.76952 6.12866,-3 10,-3c-0.04641,-0.79664 -0.09281,-1.59328 -0.14063,-2.41406c-0.33172,-9.73851 -0.33172,-9.73851 1.89063,-13.21094c11.201,-11.82327 36.98031,-1.8626 49.39746,3.75391zm-43.14746,0.87109c-0.881,5.79755 -0.33125,11.60898 2,17c-0.58266,0.00258 -1.16531,0.00516 -1.76563,0.00782c-9.36842,0.4419 -17.80279,3.98912 -24.35937,10.80468c-4.14542,5.2549 -4.875,10.64983 -4.875,17.1875c-0.68836,0.2359 -1.37672,0.4718 -2.08594,0.71485c-3.50106,1.54403 -6.46437,3.60425 -9.53906,5.84765c-0.61029,0.44183 -1.22058,0.88366 -1.84937,1.33887c-13.56496,8.62019 -13.56496,8.62019 -21.95532,21.11426c-0.43789,7.36694 2.14762,14.22186 6.80469,19.85937c7.31867,5.92464 13.16488,8.75686 22.61719,8.65235c4.24837,-0.74485 6.32796,-2.68751 9.1914,-5.80078c3.2134,-3.05445 5.90248,-3.71224 10.30469,-3.78125c1.26199,0.05929 2.52398,0.11859 3.82422,0.17968c6.21454,0.15343 10.56635,-0.5413 15.6875,-4.125c1.0609,-0.7064 2.1218,-1.41281 3.21484,-2.14062c0.9191,-0.6136 1.83821,-1.22719 2.78516,-1.85938c-1.04873,2.40272 -2.11312,4.79628 -3.1875,7.1875c-0.29197,0.67354 -0.58395,1.34707 -0.88477,2.04102c-3.21909,7.09585 -7.88834,11.0023 -14.49023,15.02148c-23.61366,14.50713 -23.61366,14.50713 -37.96094,37.21485c-1.93105,10.27259 -0.38438,19.3133 4.52344,28.53515c1.29937,1.28971 1.29937,1.28971 2.625,2.60547c3.86571,4.42156 3.15797,10.19777 3.1875,15.76953c0.02514,1.11762 0.05027,2.23524 0.07617,3.38672c0.05869,2.74645 0.0951,5.49131 0.11133,8.23828c-1.0841,0.10442 -2.1682,0.20883 -3.28516,0.31641c-4.57254,0.84142 -5.87355,1.96277 -8.61328,5.51563c-2.02297,3.98138 -1.84311,7.84347 -1.10156,12.16796c1.59241,3.74217 3.5357,5.87672 7,8c0.66,0 1.32,0 2,0c0,7.26 0,14.52 0,22c-5.94,0 -11.88,0 -18,0c0,8.91 0,17.82 0,27c47.85,0 95.7,0 145,0c0,-8.91 0,-17.82 0,-27c-5.94,0 -11.88,0 -18,0c0,-7.26 0,-14.52 0,-22c2.475,-0.99 2.475,-0.99 5,-2c3.13644,-4.23843 4.74291,-7.68824 4.45312,-13.00781c-0.83749,-3.68208 -2.79194,-6.36736 -5.45312,-8.99219c-3.39643,-1.90531 -5.02161,-2 -9,-2c0.11125,-4.43795 0.24155,-8.87516 0.375,-13.3125c0.03094,-1.2433 0.06187,-2.4866 0.09375,-3.76757c0.29414,-9.33909 0.61977,-18.87503 4.78125,-27.41993c0.44215,-0.91523 0.8843,-1.83046 1.33984,-2.77343c1.84365,-3.56473 3.78849,-7.06848 5.73438,-10.57813c13.48849,-25.34201 22.6276,-53.90209 14.73828,-82.71094c-4.18877,-13.65073 -11.3802,-25.98127 -21.0625,-36.4375c-1.13695,-1.27423 -1.13695,-1.27423 -2.29688,-2.57421c-6.46177,-6.89468 -13.65538,-11.62956 -21.70312,-16.42579c-0.75797,-0.49371 -1.51594,-0.98742 -2.29688,-1.49609c-9.97681,-6.20651 -23.71957,-9.61002 -35.39062,-9.69141c-1.39799,-0.02127 -1.39799,-0.02127 -2.82422,-0.04297c-2.74011,0.05487 -2.74011,0.05487 -5.48828,2.23047z" fill="#F2F2F2" id="svg_5"/>
  <path d="m284.4375,378.5625c1.11246,0.00129 2.22492,0.00258 3.37109,0.00391c4.27749,0.58115 6.81331,2.00171 9.79297,5.09765c2.03887,3.4057 3.3638,7.00818 4.77344,10.71094c3.36804,8.62985 6.97552,17.13811 10.6875,25.625c4.83094,11.06633 9.5726,22.1677 14.22922,33.30859c0.67884,1.62358 1.35895,3.24663 2.04034,4.86914c0.95163,2.26735 1.89844,4.53665 2.84372,6.80665c0.28684,0.68189 0.57367,1.36378 0.8692,2.06634c1.95502,4.71982 1.95502,4.71982 1.95502,6.94928c0.66,0 1.32,0 2,0c0.17106,-0.54464 0.34213,-1.08928 0.51837,-1.65042c1.81696,-5.63373 3.97489,-11.00946 6.40351,-16.40427c0.37714,-0.84767 0.75429,-1.69535 1.14286,-2.56871c1.22489,-2.75212 2.45509,-5.50183 3.68526,-8.2516c1.71788,-3.85412 3.43212,-7.70985 5.14453,-11.56641c0.64504,-1.45218 0.64504,-1.45218 1.30312,-2.9337c2.80092,-6.32141 5.54954,-12.66295 8.25157,-19.02723c0.34268,-0.80637 0.68536,-1.61274 1.03842,-2.44355c1.60584,-3.78384 3.20317,-7.57104 4.79068,-11.36261c0.57243,-1.35374 1.14502,-2.70742 1.71777,-4.06103c0.48654,-1.1612 0.97308,-2.32241 1.47437,-3.5188c2.2151,-4.65119 4.20196,-8.32661 8.52954,-11.21167c3.21484,-0.37109 3.21484,-0.37109 6.9375,-0.4375c1.2259,-0.03996 2.4518,-0.07992 3.71484,-0.12109c3.34766,0.55859 3.34766,0.55859 5.52652,2.41743c2.67435,4.6128 2.36441,8.71452 2.30698,13.9583c0.0038,1.08992 0.00759,2.17983 0.0115,3.30278c0.00741,3.59964 -0.01397,7.19848 -0.0364,10.79805c-0.00239,2.49913 -0.00329,4.99826 -0.00278,7.49739c-0.00313,5.23461 -0.01921,10.46901 -0.04654,15.70354c-0.0315,6.05483 -0.04199,12.10941 -0.04053,18.16432c0.00122,5.82581 -0.00919,11.65154 -0.02558,17.47733c-0.00638,2.47962 -0.01031,4.95925 -0.01179,7.43887c-0.00432,3.45734 -0.02178,6.91436 -0.04319,10.37162c0.0009,1.03224 0.00181,2.06448 0.00274,3.128c-0.00853,0.9379 -0.01706,1.87581 -0.02584,2.84214c-0.00336,0.81759 -0.00671,1.63518 -0.01016,2.47755c-0.25727,1.98127 -0.25727,1.98127 -2.25727,3.98127c-2.53125,0.26563 -2.53125,0.26563 -5.5,0.25c-0.97969,0.00516 -1.95937,0.01031 -2.96875,0.01563c-2.53125,-0.26563 -2.53125,-0.26563 -4.53125,-2.26563c-0.21795,-2.98119 -0.31145,-5.87216 -0.31885,-8.85596c-0.01004,-0.91712 -0.02009,-1.83425 -0.03044,-2.77917c-0.03097,-3.04089 -0.0479,-6.08169 -0.06477,-9.12268c-0.0187,-2.10466 -0.03828,-4.2093 -0.05869,-6.31394c-0.05144,-5.54676 -0.091,-11.09354 -0.12814,-16.64041c-0.03996,-5.65721 -0.09109,-11.31431 -0.1413,-16.97143c-0.0969,-11.1054 -0.18126,-22.21086 -0.25781,-33.31641c-0.3457,0.79914 -0.69139,1.59829 -1.04756,2.42165c-7.00528,16.19028 -14.03175,32.37042 -21.13994,48.51585c-6.09703,13.84177 -6.09703,13.84177 -12.11328,27.71875c-0.46704,1.08547 -0.93409,2.17094 -1.41528,3.28931c-0.82697,1.92707 -1.65003,3.85582 -2.46827,5.78662c-0.5275,1.22892 -0.5275,1.22892 -1.06567,2.48266c-0.29391,0.69215 -0.58781,1.3843 -0.89062,2.09742c-0.85938,1.68774 -0.85938,1.68774 -2.85938,3.68774c-2.5986,0.213 -5.12899,0.1249 -7.73389,0.05811c-0.74781,-0.01918 -1.49563,-0.03835 -2.26611,-0.05811c-5.61174,-10.74097 -10.35268,-21.72712 -14.9375,-32.9375c-0.65122,-1.58158 -1.30291,-3.16296 -1.95508,-4.74414c-1.86832,-4.53471 -3.72878,-9.07261 -5.58807,-13.61102c-1.88262,-4.59467 -3.76773,-9.18832 -5.65265,-13.78205c-0.73638,-1.79464 -1.47275,-3.58928 -2.20912,-5.38392c-0.36706,-0.89457 -0.73411,-1.78913 -1.11229,-2.71081c-1.78818,-4.35822 -3.57605,-8.71658 -5.36389,-13.07494c-0.32123,-0.78308 -0.64246,-1.56616 -0.97342,-2.37297c-0.736,-1.79421 -1.47199,-3.58843 -2.20798,-5.38265c-0.00809,1.14814 -0.01617,2.29628 -0.02451,3.47922c-0.07736,10.80113 -0.16507,21.60213 -0.26302,32.40309c-0.05002,5.55336 -0.09635,11.10671 -0.13434,16.66017c-0.03678,5.35577 -0.08312,10.71139 -0.13619,16.06702c-0.01859,2.04698 -0.03368,4.09399 -0.04528,6.14101c-0.0168,2.85922 -0.04582,5.71805 -0.07781,8.57713c-0.00216,0.85307 -0.00432,1.70615 -0.00655,2.58508c-0.0842,5.85918 -0.0842,5.85918 -2.3123,8.08728c-2.53125,0.26563 -2.53125,0.26563 -5.5,0.25c-0.97969,0.00516 -1.95937,0.01031 -2.96875,0.01563c-2.53125,-0.26563 -2.53125,-0.26563 -4.53125,-2.26563c-0.25727,-1.99969 -0.25727,-1.99969 -0.26743,-4.50351c-0.00853,-0.94777 -0.01706,-1.89554 -0.02584,-2.87202c0.0009,-1.04316 0.00181,-2.08632 0.00274,-3.16109c-0.00671,-1.09602 -0.01343,-2.19204 -0.02035,-3.32127c-0.01907,-3.63856 -0.02291,-7.27694 -0.02506,-10.91555c-0.00642,-2.52105 -0.01315,-5.04209 -0.02017,-7.56314c-0.01199,-5.29115 -0.01576,-10.58223 -0.0145,-15.87338c0.00121,-6.1156 -0.01989,-12.23084 -0.05148,-18.34635c-0.02931,-5.88184 -0.03649,-11.76357 -0.0353,-17.64549c-0.00236,-2.50311 -0.01123,-5.00621 -0.02666,-7.50927c-0.01954,-3.49814 -0.01387,-6.99537 -0.00179,-10.49352c-0.01124,-1.03911 -0.02248,-2.07822 -0.03406,-3.14882c0.06149,-6.98766 0.06149,-6.98766 2.3591,-10.2903c2.96848,-1.86325 5.11406,-1.85421 8.5983,-1.79379z" fill="#FAFAFA" id="svg_6"/>
  <path d="m944,370c2.53125,-0.36328 2.53125,-0.36328 5.5,-0.3125c0.97969,0.00387 1.95937,0.00773 2.96875,0.01172c2.53125,0.30078 2.53125,0.30078 4.53125,2.30078c0.27847,2.02481 0.27847,2.02481 0.31885,4.5415c0.01987,0.94083 0.03974,1.88165 0.06021,2.85099c0.01155,1.01774 0.0231,2.03549 0.035,3.08407c0.01937,1.04039 0.03873,2.08077 0.05869,3.15268c0.05991,3.33184 0.10622,6.66371 0.15225,9.99576c0.03817,2.25522 0.07722,4.51043 0.11719,6.76563c0.09618,5.53632 0.18119,11.07274 0.25781,16.60937c0.46108,-0.40557 0.92216,-0.81114 1.39722,-1.229c0.61528,-0.53545 1.23057,-1.07089 1.8645,-1.62256c0.60546,-0.52932 1.21091,-1.05865 1.83472,-1.60401c7.93369,-6.4369 17.01964,-6.57321 26.83911,-5.81494c7.10984,0.93161 12.78877,5.08644 17.53711,10.27051c10.35254,13.55627 10.86456,30.49382 8.83984,46.75c-1.91864,10.69147 -5.88629,20.12125 -14.3125,27.25c-9.89819,6.12396 -20.11374,7.48331 -31.55078,5.57422c-5.44097,-1.77731 -9.40553,-5.64883 -13.44922,-9.57422c-0.12375,1.11375 -0.2475,2.2275 -0.375,3.375c-0.625,3.625 -0.625,3.625 -2.625,5.625c-2.3125,0.30078 -2.3125,0.30078 -5,0.3125c-0.88687,0.01676 -1.77375,0.03352 -2.6875,0.05078c-0.76313,-0.11988 -1.52625,-0.23976 -2.3125,-0.36328c-2.17906,-3.26859 -2.25077,-4.18927 -2.25397,-7.97217c-0.00564,-1.02631 -0.01128,-2.05263 -0.01709,-3.11004c0.00405,-1.1253 0.0081,-2.25059 0.01227,-3.40998c-0.0035,-1.18555 -0.00701,-2.37111 -0.01062,-3.59259c-0.0073,-3.25204 -0.00558,-6.50392 0.00076,-9.75596c0.00506,-3.40188 0.00037,-6.80376 -0.00277,-10.20565c-0.00364,-5.71307 0.00116,-11.42609 0.01068,-17.13916c0.01088,-6.60688 0.00736,-13.21365 -0.00365,-19.82053c-0.00908,-5.67056 -0.01036,-11.34108 -0.00513,-17.01164c0.00312,-3.38765 0.00353,-6.77524 -0.00307,-10.16288c-0.00506,-3.77583 0.00264,-7.55141 0.0138,-11.32721c-0.00405,-1.12529 -0.0081,-2.25058 -0.01227,-3.40998c0.00564,-1.02631 0.01128,-2.05263 0.01709,-3.11004c0.00076,-0.89301 0.00151,-1.78602 0.00229,-2.70609c0.25168,-2.26608 0.25168,-2.26608 2.25168,-5.26608z" fill="#F7F7F7" id="svg_7"/>
  <path d="m1082.375,962.6875c1.15629,-0.02514 1.15629,-0.02514 2.33594,-0.05078c2.89711,0.45978 4.15077,1.37036 6.28906,3.36328c0.51898,2.1071 0.51898,2.1071 0.5459,4.56323c0.01972,0.92073 0.03944,1.84146 0.05975,2.79009c0.00123,0.99071 0.00246,1.98142 0.00373,3.00215c0.0248,1.52516 0.0248,1.52516 0.0501,3.08113c0.04862,3.25036 0.06989,6.50025 0.09052,9.7509c0.02815,2.2025 0.05807,4.40497 0.08984,6.60742c0.07403,5.40161 0.12559,10.80308 0.16016,16.20508c0.46833,-0.4121 0.93667,-0.82419 1.41919,-1.24878c0.62092,-0.54052 1.24185,-1.08104 1.88159,-1.63794c0.61271,-0.53585 1.22542,-1.07169 1.85669,-1.62378c8.19771,-6.62703 18.81363,-6.53722 28.84253,-5.4895c8.72245,2.28366 14.60873,8.6305 19.3125,16.07813c4.60847,8.60699 5.02761,17.0861 5,26.67187c0.01611,1.10344 0.03223,2.20687 0.04883,3.34375c0.00746,12.71633 -2.59368,25.22483 -11.21289,35.00781c-1.95754,1.83275 -3.9389,3.38144 -6.14844,4.89844c-0.60844,0.43313 -1.21688,0.86625 -1.84375,1.3125c-7.55612,4.31778 -17.75642,3.79203 -26.15625,2.6875c-5.8688,-1.83118 -9.97926,-5.46045 -14,-10c-0.12375,1.11375 -0.2475,2.2275 -0.375,3.375c-0.625,3.625 -0.625,3.625 -2.625,5.625c-2.3125,0.26563 -2.3125,0.26563 -5,0.25c-1.33031,0.00773 -1.33031,0.00773 -2.6875,0.01563c-2.3125,-0.26563 -2.3125,-0.26563 -4.3125,-2.26563c-0.25168,-2.17706 -0.25168,-2.17706 -0.25397,-4.93457c-0.00564,-1.04321 -0.01128,-2.08643 -0.01709,-3.16126c0.00405,-1.14915 0.0081,-2.29831 0.01227,-3.48229c-0.0035,-1.20653 -0.00701,-2.41305 -0.01062,-3.65613c-0.00731,-3.31405 -0.00557,-6.62785 0.00076,-9.94188c0.00505,-3.46376 0.00037,-6.9275 -0.00277,-10.39125c-0.00364,-5.81741 0.00116,-11.63476 0.01068,-17.45215c0.01088,-6.73129 0.00736,-13.46245 -0.00366,-20.19373c-0.00906,-5.77328 -0.01036,-11.54653 -0.00512,-17.31982c0.00312,-3.45078 0.00352,-6.90151 -0.00307,-10.3523c-0.00684,-3.84554 0.00263,-7.69096 0.0138,-11.53649c-0.00607,-1.72374 -0.00607,-1.72374 -0.01227,-3.4823c0.00564,-1.04322 0.01128,-2.08643 0.01709,-3.16126c0.00076,-0.90998 0.00151,-1.81995 0.00229,-2.75751c0.492,-4.25584 2.89403,-4.47096 6.62668,-4.48956z" fill="#F8F8F8" id="svg_8"/>
  <path d="m1093,413c9.64061,6.52362 14.97365,15.54003 17.61621,26.79761c2.45546,14.09075 1.1905,30.03824 -6.55371,42.26489c-6.33242,8.5646 -13.65826,14.43237 -24.0625,16.9375c-3.65748,0.4211 -7.25879,0.46558 -10.9375,0.4375c-0.9249,0.01998 -1.8498,0.03996 -2.80273,0.06055c-10.6916,-0.0075 -18.39893,-3.66053 -26.06446,-11.01367c-3.38487,-3.83057 -5.41366,-7.71883 -7.19531,-12.48438c-0.31711,-0.80695 -0.63422,-1.61391 -0.96094,-2.44531c-4.92248,-14.76744 -2.90998,-32.76764 3.96094,-46.55469c3.5925,-6.00888 8.04594,-10.3476 14,-14c0.98807,-0.62262 0.98807,-0.62262 1.99609,-1.25781c11.24848,-5.73452 30.12886,-4.83156 41.00391,1.25781z" fill="#FAFAFA" id="svg_9"/>
  <path d="m1250,414c10.35457,7.19407 14.70834,16.7737 17,29c1.39131,14.07974 -0.30846,29.61347 -8.70703,41.39453c-6.58801,7.73624 -14.50348,13.73698 -24.8374,14.88916c-2.86473,0.17864 -5.71047,0.25475 -8.58057,0.27881c-0.91773,0.0145 -1.83546,0.029 -2.78101,0.04395c-10.47208,-0.15377 -18.28736,-3.78834 -25.82837,-10.97364c-11.12713,-12.9305 -11.1334,-28.52569 -10.26562,-44.63281c1.30695,-11.51301 6.94408,-21.27487 15.94922,-28.56641c13.18427,-9.21643 34.43839,-10.17023 48.05078,-1.43359z" fill="#FAFAFA" id="svg_10"/>
  <path d="m743.75,410.5625c8.92366,4.49325 16.11706,12.02258 19.28516,21.55078c3.96317,15.6868 3.96317,15.6868 0.72387,22.49487c-4.53998,3.93578 -9.60093,3.00439 -15.39965,2.88013c-1.23732,-0.00707 -2.47464,-0.01415 -3.74946,-0.02144c-3.2819,-0.02324 -6.56256,-0.06812 -9.84405,-0.12352c-3.35153,-0.05124 -6.70311,-0.07358 -10.05493,-0.09918c-6.5708,-0.05514 -13.14077,-0.13883 -19.71094,-0.24414c0.40004,2.52447 0.81939,5.04321 1.25,7.5625c0.10957,0.70447 0.21914,1.40895 0.33203,2.13477c1.13613,6.48792 3.11703,11.51833 8.48047,15.67773c7.9654,4.40639 20.35089,4.17192 29.11426,2.11377c2.85818,-0.952 5.53271,-2.15516 8.22949,-3.49268c3.02836,-1.163 4.54167,-0.97942 7.59375,0.00391c1.55932,1.55932 1.39431,3.08856 1.5625,5.25c-0.0486,2.78368 -0.1033,4.21054 -1.92578,6.35156c-8.75603,5.90987 -19.00968,6.66795 -29.26172,6.77344c-0.87036,0.01394 -1.74072,0.02788 -2.63745,0.04224c-10.79917,-0.07841 -19.61839,-3.22518 -27.73755,-10.41724c-9.59604,-10.54329 -11.34536,-25.69631 -11.21484,-39.37109c0.69998,-11.82342 5.05285,-23.05185 13.11328,-31.80469c10.98701,-9.53706 28.1115,-12.30909 41.85156,-7.26172z" fill="#FAFAFA" id="svg_11"/>
  <path d="m839,414c7.63746,5.67354 11.05171,13.15514 14,22c0.27255,2.99536 0.27705,5.99356 0.3125,9c0.04351,1.22977 0.04351,1.22977 0.08789,2.48438c0.00838,0.7889 0.01676,1.57781 0.02539,2.39062c0.01458,0.7193 0.02917,1.43859 0.04419,2.17969c-0.46997,1.94531 -0.46997,1.94531 -2.14967,3.54561c-2.86038,1.7255 -4.58866,1.76275 -7.91503,1.74028c-1.12086,-0.00023 -2.24172,-0.00046 -3.39654,-0.00069c-1.20429,-0.01548 -2.40857,-0.03097 -3.64936,-0.04692c-1.23731,-0.00425 -2.47463,-0.00849 -3.74945,-0.01286c-3.28155,-0.01395 -6.56265,-0.04088 -9.84405,-0.07412c-3.3516,-0.03074 -6.70322,-0.04414 -10.05493,-0.05951c-6.57049,-0.03308 -13.14068,-0.08329 -19.71094,-0.14648c0.27971,1.88793 0.56946,3.77437 0.86328,5.66016c0.16025,1.05066 0.32049,2.10133 0.4856,3.18383c1.30126,6.30727 3.80359,12.11517 8.96362,16.15601c7.98,4.85664 17.4412,5.18195 26.36328,3.17188c6.44215,-1.73697 6.44215,-1.73697 12.56641,-4.32422c2.51225,-1.21147 4.15004,-0.62294 6.75781,0.15234c1.5691,1.5691 1.32019,3.14046 1.4375,5.3125c0.06059,0.77988 0.12117,1.55977 0.18359,2.36328c-0.62109,2.32422 -0.62109,2.32422 -3.27734,4.47656c-12.55672,6.93847 -30.33834,8.82863 -44.24219,4.92969c-10.17154,-3.95844 -16.46459,-10.27357 -21.10156,-20.08203c-5.66039,-13.7041 -6.39235,-30.19278 -1.25391,-44.17578c4.48311,-10.09745 10.48395,-18.23853 20.56641,-23.32422c11.67583,-4.07466 27.28842,-3.21436 37.6875,3.5z" fill="#FBFBFB" id="svg_12"/>
  <path d="m627.75,1004c10.79608,5.45134 15.52798,13.83393 19.25,25c0.27255,2.99536 0.27705,5.99356 0.3125,9c0.04351,1.22977 0.04351,1.22977 0.08789,2.48438c0.00838,0.7889 0.01676,1.57781 0.02539,2.39062c0.01458,0.7193 0.02917,1.43859 0.04419,2.17969c-0.46997,1.94531 -0.46997,1.94531 -2.14967,3.54561c-2.86038,1.7255 -4.58866,1.76275 -7.91503,1.74028c-1.12086,-0.00023 -2.24172,-0.00046 -3.39654,-0.00069c-1.20429,-0.01548 -2.40857,-0.03097 -3.64935,-0.04692c-1.23732,-0.00425 -2.47464,-0.00849 -3.74946,-0.01286c-3.28155,-0.01395 -6.56265,-0.04088 -9.84405,-0.07412c-3.3516,-0.03074 -6.70322,-0.04414 -10.05493,-0.05951c-6.57049,-0.03308 -13.14068,-0.08329 -19.71094,-0.14648c0.27971,1.88793 0.56946,3.77437 0.86328,5.66016c0.16025,1.05066 0.32049,2.10133 0.4856,3.18383c1.30126,6.30727 3.80359,12.11517 8.96362,16.15601c7.98,4.85664 17.4412,5.18195 26.36328,3.17188c6.44215,-1.73697 6.44215,-1.73697 12.56641,-4.32422c2.51225,-1.21147 4.15004,-0.62294 6.75781,0.15234c1.5691,1.5691 1.32019,3.14046 1.4375,5.3125c-0.03516,2.46484 -0.03516,2.46484 -0.4375,4.6875c-9.6861,9.2018 -24.89888,8.51889 -37.32031,8.34375c-8.92561,-0.35083 -16.6288,-3.29712 -23.16016,-9.57422c-11.25863,-13.11095 -12.41132,-28.53859 -11.30469,-44.95703c1.21448,-10.26163 6.00938,-21.42178 13.82032,-28.41797c11.8572,-8.41555 27.98557,-10.64655 41.71484,-5.39453z" fill="#FBFBFB" id="svg_13"/>
  <path d="m486,963c2.53125,-0.36328 2.53125,-0.36328 5.5,-0.3125c0.97969,0.00387 1.95937,0.00773 2.96875,0.01172c2.53125,0.30078 2.53125,0.30078 4.53125,2.30078c0.27847,2.06277 0.27847,2.06277 0.31885,4.6333c0.01987,0.96085 0.03974,1.92169 0.06021,2.91165c0.01155,1.03962 0.0231,2.07924 0.035,3.15036c0.01937,1.06258 0.03873,2.12516 0.05869,3.21994c0.05991,3.40317 0.10623,6.80637 0.15225,10.20975c0.03817,2.3034 0.07722,4.60679 0.11719,6.91016c0.09618,5.65482 0.18119,11.30972 0.25781,16.96484c0.92704,-1.18964 0.92704,-1.18964 1.8728,-2.40332c1.9823,-2.4198 3.53329,-3.77024 6.1897,-5.34668c0.6716,-0.40734 1.3432,-0.81469 2.03516,-1.23437c7.11279,-3.79739 18.41763,-3.23674 26.10156,-1.14454c8.56381,3.99994 12.76438,10.04963 16.03906,18.69922c1.42259,4.53768 1.88971,8.72188 1.90698,13.47339c0.00638,1.19441 0.01276,2.38883 0.01934,3.61943c0.00111,1.28035 0.00222,2.56069 0.00337,3.87984c0.00499,1.97992 0.00499,1.97992 0.01008,3.99983c0.00598,2.78644 0.00785,5.57285 0.00725,8.3593c-0.0001,3.57462 0.0136,7.14904 0.03077,10.72361c0.01377,3.40992 0.01321,6.81981 0.0144,10.22976c0.00718,1.28642 0.01437,2.57284 0.02177,3.89824c-0.00307,1.18495 -0.00615,2.36991 -0.00932,3.59077c0.00142,1.04637 0.00285,2.09275 0.00432,3.17082c-0.24724,2.4847 -0.24724,2.4847 -2.24724,4.4847c-2.53125,0.26563 -2.53125,0.26563 -5.5,0.25c-0.97969,0.00516 -1.95938,0.01031 -2.96875,0.01563c-2.53125,-0.26563 -2.53125,-0.26563 -4.53125,-2.26563c-0.25156,-2.50247 -0.25156,-2.50247 -0.25537,-5.69971c-0.00696,-1.19529 -0.01392,-2.39058 -0.02109,-3.6221c0.001,-1.29888 0.002,-2.59776 0.00302,-3.936c-0.00856,-1.34562 -0.01856,-2.69124 -0.02994,-4.03684c-0.04624,-5.71652 -0.07084,-11.43299 -0.07748,-17.14969c-0.00504,-3.49738 -0.02943,-6.99422 -0.06533,-10.49142c-0.01445,-1.96953 -0.00718,-3.93918 0.00054,-5.90875c-0.07915,-7.24651 -0.75496,-11.95851 -4.55435,-18.15549c-0.33,-0.99 -0.66,-1.98 -1,-3c-5.37417,-2.55273 -11.27015,-3.01789 -17.00391,-1.45312c-6.47607,2.77359 -11.92555,7.79358 -15.99609,13.45312c-1.33103,4.71493 -1.26489,9.15804 -1.125,14.03125c-0.00505,2.00543 -0.0101,4.01086 -0.01555,6.01629c0.00516,2.77943 0.05655,5.55732 0.10692,8.33625c0.07782,4.897 0.07543,9.79475 0.08295,14.69226c0.00867,2.60207 0.03266,5.20414 0.07324,7.80591c0.01241,1.16882 0.02481,2.33763 0.0376,3.54187c0.01683,1.03129 0.03367,2.06258 0.05102,3.12512c-0.21118,2.45105 -0.21118,2.45105 -2.21118,4.45105c-2.53125,0.26563 -2.53125,0.26563 -5.5,0.25c-0.97969,0.00516 -1.95937,0.01031 -2.96875,0.01563c-2.53125,-0.26563 -2.53125,-0.26563 -4.53125,-2.26563c-0.25168,-2.15865 -0.25168,-2.15865 -0.25397,-4.88988c-0.00846,-1.55003 -0.00846,-1.55003 -0.01709,-3.13138c0.00405,-1.13823 0.0081,-2.27647 0.01227,-3.4492c-0.0035,-1.19516 -0.00701,-2.39032 -0.01062,-3.6217c-0.00731,-3.28309 -0.00557,-6.56602 0.00076,-9.84911c0.00505,-3.43259 0.00037,-6.86517 -0.00277,-10.29776c-0.00364,-5.76613 0.00116,-11.5322 0.01068,-17.29832c0.01088,-6.66878 0.00736,-13.33744 -0.00365,-20.00622c-0.00908,-5.7215 -0.01036,-11.44295 -0.00513,-17.16445c0.00312,-3.41896 0.00353,-6.83787 -0.00307,-10.25682c-0.00506,-3.81185 0.00264,-7.62347 0.0138,-11.43531c-0.00405,-1.13621 -0.0081,-2.27242 -0.01227,-3.44307c0.00564,-1.03617 0.01128,-2.07235 0.01709,-3.13992c0.00076,-0.90168 0.00151,-1.80336 0.00229,-2.73237c0.25168,-2.28449 0.25168,-2.28449 2.25168,-5.28449z" fill="#F5F5F5" id="svg_14"/>
  <path d="m461.69531,977.59766c2.67725,1.95276 4.96503,4.06269 7.30469,6.40234c0.56872,7.05214 0.56872,7.05214 -1.5,10.5c-0.495,0.495 -0.99,0.99 -1.5,1.5c-3.85048,-0.55393 -6.23796,-1.59866 -9.375,-3.875c-9.06487,-6.27915 -17.66424,-7.90592 -28.625,-7.125c-9.5513,1.97413 -16.29893,7.22708 -22,15c-9.04576,14.95143 -8.81482,35.4764 -5,52c2.62588,9.15762 7.30448,17.20735 15.75,22c8.66381,4.3622 20.39235,5.11456 29.70605,2.24268c5.89887,-2.43736 11.24267,-5.70849 16.54395,-9.24268c2.625,-0.1875 2.625,-0.1875 5,0c1.71214,1.71214 1.45251,3.7804 1.625,6.125c-0.0522,3.35773 -0.16696,5.23752 -2.14063,7.98438c-12.19166,10.20488 -29.1776,12.13888 -44.48437,10.89062c-12.98107,-2.30712 -23.35761,-9.30406 -31,-20c-3.71948,-6.61564 -6.07017,-13.6849 -8,-21c-0.17201,-0.58169 -0.34402,-1.16338 -0.52124,-1.76269c-2.99295,-13.98644 -1.81683,-31.98361 3.52124,-45.23731c0.4241,-1.05832 0.8482,-2.11664 1.28515,-3.20703c5.52157,-12.22743 15.27842,-22.50087 27.71485,-27.79297c14.52842,-4.93452 32.46443,-3.24499 45.69531,4.59766z" fill="#FAFAFA" id="svg_15"/>
  <path d="m923,979c3.50446,2.77864 4.87518,5.09506 5.5,9.625c-0.5098,3.44114 -1.12487,4.90091 -3.5,7.375c-3.85048,-0.55393 -6.23796,-1.59866 -9.375,-3.875c-9.99912,-6.9263 -19.81028,-8.32131 -31.75,-6.5c-4.65208,0.99792 -7.69939,3.06474 -11.28125,6.13281c-1.59375,1.24219 -1.59375,1.24219 -3.59375,1.24219c-0.26941,0.54656 -0.53883,1.09313 -0.81641,1.65625c-0.8375,1.65842 -1.70232,3.30318 -2.58593,4.9375c-8.36834,15.84234 -10.26276,33.14798 -5.91016,50.59375c2.91024,9.30057 5.93124,17.31659 14.3125,22.8125c0.58781,0.4125 1.17562,0.825 1.78125,1.25c8.43011,4.8172 20.70514,4.20283 29.83594,1.79688c5.28914,-2.12643 9.96183,-4.95968 14.69531,-8.10547c2.3124,-1.29002 4.10329,-1.41127 6.6875,-0.94141c1.64157,1.64157 1.28816,3.49216 1.375,5.75c-0.07061,3.55066 -0.18141,4.94579 -2.125,8c-4.80579,3.32709 -9.93366,5.83927 -15.25,8.25c-0.80438,0.36738 -1.60875,0.73477 -2.4375,1.11328c-12.23247,4.23288 -27.86857,3.03269 -39.5625,-2.11328c-3.26397,-1.7318 -6.12682,-3.68219 -9,-6c-0.60199,-0.45504 -1.20398,-0.91008 -1.82422,-1.37891c-4.33743,-3.73311 -6.8489,-8.28507 -9.42578,-13.30859c-0.49415,-0.95205 -0.49415,-0.95205 -0.99829,-1.92334c-4.87588,-10.02603 -6.21845,-20.02966 -6.00171,-31.07666c0.00516,-1.06283 0.01031,-2.12566 0.01562,-3.2207c0.18289,-18.52884 4.9292,-33.79743 17.23438,-48.0918c18.22943,-15.14396 43.85214,-16.59993 64,-4z" fill="#FAFAFA" id="svg_16"/>
  <path d="m989.4375,1002.8125c0.98871,-0.01418 1.97742,-0.02836 2.99609,-0.04297c2.56641,0.23047 2.56641,0.23047 4.56641,2.23047c0.25829,2.37512 0.25829,2.37512 0.27124,5.39258c0.01019,1.12877 0.02037,2.25755 0.03087,3.42053c0.00214,1.22699 0.00428,2.45397 0.00648,3.71814c0.02518,2.59115 0.05058,5.18229 0.07618,7.77344c0.03067,4.09014 0.05285,8.1803 0.07153,12.27051c0.01909,3.94386 0.06123,7.88736 0.10229,11.83105c0.00012,1.21079 0.00024,2.42158 0.00035,3.66907c0.0965,8.34824 0.49839,16.3199 5.94106,22.98718c4.18412,3.24269 8.36385,3.57952 13.5,2.9375c7.99017,-2.48343 14.2524,-7.07897 19,-14c0.59622,-2.90229 0.59622,-2.90229 0.51416,-6.0437c0.01326,-1.19441 0.02653,-2.38883 0.04019,-3.61943c-0.00504,-1.28035 -0.01009,-2.56069 -0.01529,-3.87984c0.01802,-2.01629 0.03604,-4.03258 0.05465,-6.04887c0.02123,-2.81621 0.02464,-5.63234 0.02793,-8.44863c0.00773,-4.94139 0.03453,-9.88264 0.07498,-14.82386c0.01973,-2.62974 0.02896,-5.25957 0.02692,-7.88938c0.01044,-1.77743 0.01044,-1.77743 0.02109,-3.59077c0.00126,-1.04637 0.00252,-2.09275 0.00381,-3.17082c0.25156,-2.4847 0.25156,-2.4847 2.25156,-4.4847c2.53125,-0.26563 2.53125,-0.26563 5.5,-0.25c0.97969,-0.00516 1.95938,-0.01031 2.96875,-0.01563c2.53125,0.26563 2.53125,0.26563 4.53125,2.26563c0.19848,2.66962 0.27274,5.23551 0.25879,7.90625c0.0035,0.81638 0.00701,1.63276 0.01062,2.47388c0.00882,2.70671 0.00296,5.41316 -0.00378,8.11987c0.00134,1.87565 0.00328,3.7513 0.00579,5.62695c0.00296,3.93428 -0.00135,7.86847 -0.01068,11.80274c-0.01139,5.05106 -0.00483,10.1019 0.00715,15.15295c0.00721,3.87408 0.00493,7.74811 -0.00026,11.62219c-0.00134,1.8628 0.00032,3.72559 0.00496,5.58838c0.00506,2.60031 -0.00264,5.20026 -0.0138,7.80054c0.00405,0.77513 0.0081,1.55026 0.01227,2.34888c-0.04253,5.32884 -0.04253,5.32884 -2.27106,7.55737c-2.60156,0.19531 -2.60156,0.19531 -5.625,0.125c-1.00289,-0.01805 -2.00578,-0.03609 -3.03906,-0.05469c-0.77086,-0.0232 -1.54172,-0.0464 -2.33594,-0.07031c-1.14815,-2.2963 -1.3077,-4.07698 -1.5625,-6.625c-0.08379,-0.81727 -0.16758,-1.63453 -0.25391,-2.47656c-0.09088,-0.93973 -0.09088,-0.93973 -0.18359,-1.89844c-0.78375,1.05187 -1.5675,2.10375 -2.375,3.1875c-5.04499,5.7192 -10.32791,8.67078 -17.99219,9.25781c-1.58537,0.05765 -3.17153,0.09659 -4.75781,0.11719c-0.75185,0.01474 -1.50369,0.02949 -2.27832,0.04468c-6.89327,-0.12606 -12.0264,-2.45532 -17.28418,-6.85718c-6.24869,-7.43087 -9.56805,-14.48869 -9.55542,-24.40381c-0.00308,-1.27757 -0.00615,-2.55514 -0.00932,-3.87143c0.00689,-1.3744 0.01416,-2.7488 0.02177,-4.1232c0.00119,-1.42249 0.00165,-2.84499 0.00139,-4.26748c0.00156,-2.96705 0.00979,-5.93396 0.02327,-8.90097c0.01708,-3.81003 0.02081,-7.61992 0.02005,-11.42997c0.00028,-2.93041 0.00575,-5.86079 0.01301,-8.79118c0.00318,-1.40588 0.00515,-2.81177 0.00589,-4.21765c0.00216,-1.95563 0.01168,-3.91126 0.0216,-5.86687c0.00381,-1.11362 0.00762,-2.22724 0.01155,-3.3746c0.24373,-4.56228 2.53446,-3.66409 6.57121,-3.69034z" fill="#F8F8F8" id="svg_17"/>
  <path d="m430.4375,409.8125c0.98871,-0.01418 1.97742,-0.02836 2.99609,-0.04297c2.56641,0.23047 2.56641,0.23047 4.56641,2.23047c0.25156,2.45778 0.25156,2.45778 0.25537,5.59204c0.00696,1.17205 0.01392,2.34409 0.02109,3.55165c-0.001,1.27387 -0.002,2.54774 -0.00302,3.86022c0.0151,1.99831 0.03022,3.99663 0.04668,5.99494c0.03776,4.93237 0.05489,9.86478 0.06074,14.79729c0.00406,2.76271 0.01873,5.525 0.04434,8.28758c0.02333,2.5999 0.03086,5.19999 0.02045,7.79996c0.09365,8.43179 1.15789,14.9994 6.61685,21.61632c3.77861,2.92537 7.71507,2.89721 12.3125,2.84375c4.36106,-0.57109 7.24044,-2.65436 10.625,-5.34375c0.64195,-0.50402 1.28391,-1.00805 1.94531,-1.52734c5.79182,-4.60207 5.79182,-4.60207 8.44669,-11.22478c0.00809,-1.054 0.01617,-2.10799 0.0245,-3.19392c0.01657,-1.19772 0.03314,-2.39544 0.05021,-3.62945c0.00325,-1.28864 0.0065,-2.57728 0.00985,-3.90498c0.01432,-1.33712 0.03007,-2.67422 0.04721,-4.01131c0.04181,-3.51274 0.06684,-7.02539 0.0875,-10.53831c0.03586,-5.63344 0.09667,-11.26666 0.15849,-16.89987c0.01913,-1.97042 0.03032,-3.94091 0.04143,-5.91139c0.01026,-1.18826 0.02052,-2.37652 0.0311,-3.60079c0.00649,-1.05161 0.01299,-2.10321 0.01968,-3.18669c0.13803,-2.37117 0.13803,-2.37117 1.13803,-3.37117c1.80927,-0.12488 3.62396,-0.17571 5.4375,-0.1875c0.98871,-0.01418 1.97742,-0.02836 2.99609,-0.04297c2.56641,0.23047 2.56641,0.23047 4.56641,2.23047c0.19848,2.66962 0.27274,5.23551 0.25879,7.90625c0.0035,0.81638 0.00701,1.63276 0.01062,2.47388c0.00882,2.70671 0.00296,5.41316 -0.00378,8.11987c0.00134,1.87565 0.00328,3.7513 0.00579,5.62695c0.00296,3.93428 -0.00135,7.86847 -0.01068,11.80274c-0.01139,5.05106 -0.00483,10.1019 0.00715,15.15295c0.00721,3.87408 0.00493,7.74811 -0.00026,11.62219c-0.00134,1.8628 0.00032,3.72559 0.00496,5.58838c0.00506,2.60031 -0.00264,5.20026 -0.0138,7.80054c0.00405,0.77513 0.0081,1.55026 0.01227,2.34888c-0.04253,5.32884 -0.04253,5.32884 -2.27106,7.55737c-2.3125,0.26563 -2.3125,0.26563 -5,0.25c-1.33031,0.00773 -1.33031,0.00773 -2.6875,0.01563c-2.3125,-0.26563 -2.3125,-0.26563 -4.3125,-2.26563c-0.41406,-2.16406 -0.41406,-2.16406 -0.625,-4.625c-0.07477,-0.81727 -0.14953,-1.63453 -0.22656,-2.47656c-0.04899,-0.62649 -0.09797,-1.25297 -0.14844,-1.89844c-0.78375,1.05187 -1.5675,2.10375 -2.375,3.1875c-5.04499,5.7192 -10.32791,8.67078 -17.99219,9.25781c-1.58537,0.05765 -3.17153,0.09659 -4.75781,0.11719c-0.75185,0.01474 -1.50369,0.02949 -2.27832,0.04468c-7.11345,-0.13009 -13.23911,-2.70046 -18.34668,-7.73218c-6.44187,-6.82426 -8.37272,-15.99691 -8.37939,-25.11816c-0.00316,-1.23769 -0.00631,-2.47537 -0.00956,-3.75055c0.00179,-1.34064 0.00384,-2.68128 0.00614,-4.02191c-0.00068,-1.38052 -0.00165,-2.76103 -0.0029,-4.14155c-0.00147,-2.88479 0.00066,-5.76956 0.00534,-8.65435c0.00572,-3.7047 0.0024,-7.40933 -0.00357,-11.11402c-0.00361,-2.84634 -0.00247,-5.69265 0.00012,-8.53899c0.00067,-1.36681 -0.00015,-2.73361 -0.00248,-4.10042c-0.00252,-1.90315 0.00201,-3.80631 0.00691,-5.70946c0.00119,-1.62619 0.00119,-1.62619 0.00241,-3.28522c0.23458,-4.50816 2.59511,-3.60206 6.56448,-3.62787z" fill="#FCFCFC" id="svg_18"/>
  <path d="m1226.4375,421.3125c1.25623,0.02369 1.25623,0.02369 2.53784,0.04785c5.53071,0.24833 9.92521,0.86766 14.29419,4.53028c6.94383,8.46426 8.90786,17.35648 8.91797,28.04687c0.01225,0.6774 0.02449,1.3548 0.03711,2.05273c0.02499,8.68889 -2.72868,18.11289 -8.67383,24.6543c-6.24289,5.45664 -13.21069,5.94462 -21.24219,5.66797c-6.01957,-0.56855 -10.22665,-1.86629 -14.55859,-6.1875c-6.15173,-8.11826 -7.10187,-17.53418 -7.1875,-27.375c-0.01015,-0.82718 -0.0203,-1.65435 -0.03076,-2.50659c0.12233,-8.63305 2.37324,-16.89036 8.46826,-23.24341c5.53807,-4.53732 10.36197,-5.86065 17.4375,-5.6875z" fill="#020202" id="svg_19"/>
  <path d="m1082.92969,423.06641c6.5752,4.06246 10.35942,9.68852 12.17578,17.10938c2.32307,11.1734 2.71094,24.71842 -3.10547,34.82421c-3.2198,4.86639 -6.78456,8.88973 -12.5,10.59766c-7.97712,1.28382 -16.9004,2.015 -23.99609,-2.41406c-6.14098,-4.83303 -8.86502,-12.71351 -10.50391,-20.1836c-1.09486,-12.51762 -0.82389,-24.3295 7.3125,-34.5c7.1503,-8.17176 20.86958,-8.98172 30.61719,-5.43359z" fill="#010101" id="svg_20"/>
  <path d="m622,372c1.73438,1.38672 1.73438,1.38672 3,3c0.38992,4.36707 0.46324,6.30514 -2,10c-3.46942,-0.45822 -6.67395,-0.89132 -10,-2c-6.75013,-0.33577 -6.75013,-0.33577 -13,2c-1.01193,2.14043 -1.01193,2.14043 -1.25,4.75c-0.13664,0.97066 -0.27328,1.94133 -0.41406,2.94141c-0.58503,5.76187 -1.01517,11.52625 -1.33594,17.30859c0.59539,-0.01047 1.19077,-0.02095 1.8042,-0.03174c2.69022,-0.0415 5.38038,-0.06757 8.0708,-0.09326c0.93715,-0.01676 1.8743,-0.03352 2.83984,-0.05078c0.8959,-0.00645 1.7918,-0.01289 2.71485,-0.01953c0.82741,-0.01048 1.65483,-0.02095 2.50732,-0.03174c2.06299,0.22705 2.06299,0.22705 4.06299,2.22705c0.23047,2.12891 0.23047,2.12891 0.1875,4.5625c-0.00645,0.80566 -0.01289,1.61133 -0.01953,2.44141c-0.16797,1.99609 -0.16797,1.99609 -1.16797,2.99609c-6.93,0 -13.86,0 -21,0c0,24.75 0,49.5 0,75c-2.6233,1.31165 -4.63699,1.13263 -7.5625,1.125c-0.99129,0.00258 -1.98258,0.00516 -3.00391,0.00781c-2.43359,-0.13281 -2.43359,-0.13281 -3.43359,-1.13281c-0.09493,-2.34254 -0.1256,-4.65546 -0.11353,-6.99829c-0.00014,-0.73166 -0.00029,-1.46333 -0.00044,-2.21716c0.0007,-2.42952 0.00849,-4.85896 0.01631,-7.28846c0.00187,-1.68009 0.00329,-3.36017 0.00429,-5.04026c0.00383,-4.43057 0.01366,-8.8611 0.02471,-13.29165c0.01021,-4.51761 0.01479,-9.03523 0.01983,-13.55285c0.01074,-8.87046 0.02782,-17.74089 0.04883,-26.61133c-1.37285,0.05221 -1.37285,0.05221 -2.77344,0.10547c-1.18851,0.02707 -2.37703,0.05414 -3.60156,0.08203c-1.18336,0.0348 -2.36672,0.06961 -3.58594,0.10547c-1.50433,-0.14502 -1.50433,-0.14502 -3.03906,-0.29297c-2.31332,-3.46999 -2.33958,-4.92509 -2,-9c0.66,-0.99 1.32,-1.98 2,-3c3.03906,-0.29297 3.03906,-0.29297 6.625,-0.1875c1.18852,0.02707 2.37703,0.05414 3.60156,0.08203c0.91524,0.03481 1.83047,0.06961 2.77344,0.10547c-0.04641,-1.24395 -0.09281,-2.48789 -0.14063,-3.76953c-0.29499,-11.20089 -0.15322,-20.79215 6.76563,-30.16797c8.41565,-8.79626 21.90031,-9.26772 32.375,-4.0625z" fill="#FCFCFC" id="svg_21"/>
  <path d="m993,425c4.95619,4.62577 6.47222,9.48628 8,16c0.18434,0.76055 0.36867,1.52109 0.55859,2.30469c1.97706,12.07228 1.03784,24.64626 -5.55859,35.19531c-4.75689,5.94611 -8.09245,7.97899 -15.75,9c-5.70815,-0.18484 -9.75154,-3.26836 -14.25,-6.5c-0.79906,-0.55639 -1.59812,-1.11278 -2.42139,-1.68604c-4.8023,-3.96369 -7.05487,-7.30821 -7.68806,-13.43928c-0.16659,-3.13439 -0.18523,-6.24739 -0.11882,-9.38518c0.04071,-2.4237 -0.01998,-4.83043 -0.09009,-7.25317c-0.05579,-7.97043 0.29538,-13.25166 6.15039,-19.20508c9.62865,-8.1162 19.73919,-12.73064 31.16797,-5.03125z" fill="#020202" id="svg_22"/>
  <path d="m1122.23438,1014.85156c7.25727,4.0106 10.47902,10.42236 12.76563,18.14844c0.45074,4.36812 0.41598,8.73575 0.4375,13.125c0.03287,1.16015 0.06574,2.32031 0.0996,3.51562c0.05438,8.83851 -1.32242,17.55895 -7.3518,24.42627c-3.70296,3.42348 -7.60019,5.66735 -12.69312,6.19092c-9.56059,-0.48516 -15.53254,-5.24843 -22.09643,-11.89478c-2.89386,-3.53607 -3.2014,-7.01567 -3.2356,-11.47241c-0.01664,-0.76685 -0.03328,-1.5337 -0.05043,-2.32379c-0.02521,-1.61685 -0.03704,-3.23396 -0.03624,-4.85101c-0.01091,-2.44881 -0.10161,-4.88621 -0.19653,-7.33301c-0.2031,-11.35764 -0.2031,-11.35764 3.25732,-16.64209c2.49977,-2.54041 4.96768,-4.67268 7.86572,-6.74072c0.80454,-0.5767 1.60908,-1.15339 2.43799,-1.74756c5.84379,-3.9037 12.15614,-4.93161 18.79639,-2.40088z" fill="#020202" id="svg_23"/>
  <path d="m782.125,1007.25c2.39939,3.5191 2.41682,5.57023 1.875,9.75c-0.66,0.99 -1.32,1.98 -2,3c-3.99377,0.58673 -6.19349,-0.44781 -9.5625,-2.5c-5.81025,-3.05711 -10.98136,-3.36516 -17.4375,-2.5c-4.21172,1.52493 -5.51986,2.27979 -8,6c-0.33319,3.59846 -0.2914,6.23508 1,9.625c4.84596,5.75458 12.19617,8.44936 19,11.25c8.83939,3.80707 16.37451,7.79054 20.37891,17.02734c2.03514,6.87343 0.68405,13.73881 -2.37891,20.09766c-4.35995,7.16586 -11.24429,10.41476 -19,13c-10.29441,0.86372 -21.98107,1.69518 -31,-4c-0.63293,-0.36223 -1.26586,-0.72445 -1.91797,-1.09766c-2.36115,-1.59391 -3.90017,-3.05918 -4.51172,-5.89453c-0.12544,-3.80516 0.30729,-5.82421 2.42969,-9.00781c4.61385,0.3009 7.46391,1.18238 11.4375,3.5625c4.67742,2.47882 8.62082,2.9274 13.8125,2.9375c0.67345,0.00588 1.34691,0.01176 2.04077,0.01782c4.57954,-0.11379 7.87173,-1.02004 11.70923,-3.51782c2.31326,-3.31433 2.69299,-6.66218 2.53516,-10.63843c-0.84246,-3.71763 -3.13804,-4.80659 -6.15088,-6.91137c-4.73204,-2.87818 -9.83932,-4.86008 -14.96241,-6.92872c-7.94441,-3.36906 -15.23051,-8.11125 -18.80078,-16.2832c-1.6044,-5.78192 -1.2039,-11.29557 0.50391,-16.98828c3.83302,-6.6439 7.91377,-10.95924 14.875,-14.25c10.82011,-2.83744 24.89642,-2.39458 34.125,4.25z" fill="#F8F8F8" id="svg_24"/>
  <path d="m918.125,414.25c2.39939,3.5191 2.41682,5.57023 1.875,9.75c-2,3 -2,3 -4.125,3.4375c-3.4524,-0.52537 -5.9077,-1.86523 -8.97266,-3.48047c-4.88426,-2.45717 -10.53957,-2.48575 -15.90234,-1.95703c-4.27011,1.53244 -4.27011,1.53244 -7.16016,4.83203c-0.94337,2.43523 -1.05558,4.01215 -0.83984,6.60547c0.04125,0.74121 0.0825,1.48242 0.125,2.24609c1.63804,4.33643 5.1446,6.4933 9.17383,8.40992c2.63632,1.09142 5.28989,2.12751 7.95117,3.15649c9.35463,3.81225 17.18728,7.64712 22.46484,16.6875c2.27169,5.41339 2.19342,10.93732 0.5586,16.5625c-3.37154,8.11361 -7.9064,12.72123 -15.77344,16.51953c-9.85865,3.86644 -23.70588,3.64715 -33.4375,-0.26953c-3.70036,-1.72506 -6.45994,-3.57571 -9.0625,-6.75c-0.64723,-2.85767 -0.28422,-5.01568 0,-8c0.66,-0.99 1.32,-1.98 2,-3c4.60639,0.30042 7.42171,1.16616 11.375,3.5625c4.82566,2.55389 9.01861,2.95804 14.375,3c0.72107,0.01426 1.44214,0.02852 2.18506,0.04321c5.11871,-0.09527 8.17184,-1.31568 12.06494,-4.60571c0.87052,-2.61155 1.3124,-4.59703 1.5,-7.3125c0.07219,-0.73863 0.14438,-1.47727 0.21875,-2.23828c-1.20395,-4.10261 -4.24731,-6.13347 -7.71875,-8.44922c-3.06779,-1.55608 -6.2185,-2.7932 -9.4375,-4c-7.93015,-2.98725 -16.20039,-6.47703 -20.5,-14.25c-0.38027,-0.66516 -0.76055,-1.33031 -1.15234,-2.01562c-2.84913,-5.42924 -2.76788,-11.26525 -1.29688,-17.21485c2.6226,-6.71246 7.10403,-11.11746 13.34375,-14.61719c10.82332,-4.44935 26.67222,-3.48928 36.16797,3.34766z" fill="#F8F8F8" id="svg_25"/>
  <path d="m709,1005c3.125,2.25 3.125,2.25 5,5c0.53604,4.44144 0.50032,6.24953 -2,10c-3.8419,-0.39404 -6.73466,-1.31484 -10.125,-3.0625c-6.63469,-3.07598 -13.63866,-3.05348 -20.5,-0.6875c-2.54683,1.87661 -3.24008,2.86065 -4.375,5.75c-0.25003,2.19515 -0.25003,2.19515 0,4.4375c0.04125,0.74121 0.0825,1.48242 0.125,2.24609c1.63804,4.33643 5.1446,6.4933 9.17383,8.40992c2.63632,1.09142 5.28989,2.12751 7.95117,3.15649c9.35456,3.81222 17.19206,7.6472 22.46484,16.69141c2.65898,6.3282 1.98366,12.89874 -0.21484,19.30859c-2.89114,6.42589 -7.82079,10.71967 -14.1875,13.625c-11.80022,4.00762 -25.79473,3.8415 -37.0625,-1.48828c-3.78002,-2.3297 -3.78002,-2.3297 -5.25,-4.38672c-0.32813,-2.66406 -0.32813,-2.66406 -0.25,-5.625c0.01547,-0.98227 0.03094,-1.96453 0.04687,-2.97656c0.20313,-2.39844 0.20313,-2.39844 1.20313,-3.39844c4.63225,0.19712 7.41528,1.17313 11.375,3.5625c4.82566,2.55389 9.01861,2.95804 14.375,3c0.72107,0.01426 1.44214,0.02852 2.18506,0.04321c5.11871,-0.09527 8.17184,-1.31568 12.06494,-4.60571c0.87052,-2.61155 1.3124,-4.59703 1.5,-7.3125c0.07219,-0.73863 0.14438,-1.47727 0.21875,-2.23828c-1.20916,-4.12035 -4.22023,-6.13908 -7.71875,-8.44922c-4.26818,-2.13409 -8.7177,-3.78322 -13.17383,-5.47852c-8.16522,-3.26963 -15.59085,-7.91769 -19.19726,-16.29492c-1.83816,-6.50775 -1.35399,-12.40085 1.43359,-18.53906c3.77882,-6.66851 8.72568,-11.08119 16.15625,-13.21875c9.34476,-1.57496 20.12698,-1.6858 28.78125,2.53125z" fill="#F9F9F9" id="svg_26"/>
  <path d="m949.375,962.6875c1.15629,-0.02514 1.15629,-0.02514 2.33594,-0.05078c2.91184,0.46212 4.15518,1.33903 6.28906,3.36328c0.49778,2.28449 0.49778,2.28449 0.49448,5.01686c0.00839,1.03618 0.01677,2.07235 0.02542,3.13992c-0.01124,1.13622 -0.02248,2.27243 -0.03406,3.44307c0.0038,1.19692 0.00759,2.39383 0.0115,3.62702c0.00615,3.28315 -0.00561,6.56565 -0.0259,9.84873c-0.01756,3.43304 -0.01405,6.86606 -0.01328,10.29914c-0.00187,5.76442 -0.01924,11.52863 -0.04654,17.29298c-0.03146,6.66941 -0.04199,13.33858 -0.04053,20.00805c0.00122,6.411 -0.00898,12.82193 -0.02558,19.2329c-0.00707,2.73083 -0.01073,5.46163 -0.01179,8.19247c-0.00432,3.80958 -0.02178,7.61888 -0.04319,11.4284c0.0009,1.13824 0.00181,2.27648 0.00274,3.4492c-0.01279,1.55004 -0.01279,1.55004 -0.02584,3.13138c-0.00336,0.90131 -0.00671,1.80261 -0.01016,2.73123c-0.25727,2.15865 -0.25727,2.15865 -2.25727,4.15865c-2.53125,0.26563 -2.53125,0.26563 -5.5,0.25c-0.97969,0.00516 -1.95938,0.01031 -2.96875,0.01563c-2.53125,-0.26563 -2.53125,-0.26563 -4.53125,-2.26563c-0.25168,-2.17706 -0.25168,-2.17706 -0.25397,-4.93457c-0.00564,-1.04321 -0.01128,-2.08643 -0.01709,-3.16126c0.00405,-1.14915 0.0081,-2.29831 0.01227,-3.48229c-0.0035,-1.20653 -0.00701,-2.41305 -0.01062,-3.65613c-0.00731,-3.31405 -0.00557,-6.62785 0.00076,-9.94188c0.00505,-3.46376 0.00037,-6.9275 -0.00277,-10.39125c-0.00364,-5.81741 0.00116,-11.63476 0.01068,-17.45215c0.01088,-6.73129 0.00736,-13.46245 -0.00366,-20.19373c-0.00906,-5.77328 -0.01036,-11.54653 -0.00512,-17.31982c0.00312,-3.45078 0.00352,-6.90151 -0.00307,-10.3523c-0.00684,-3.84554 0.00263,-7.69096 0.0138,-11.53649c-0.00607,-1.72374 -0.00607,-1.72374 -0.01227,-3.4823c0.00564,-1.04322 0.01128,-2.08643 0.01709,-3.16126c0.00076,-0.90998 0.00151,-1.81995 0.00229,-2.75751c0.492,-4.25584 2.89403,-4.47096 6.62668,-4.48956z" fill="#F3F3F3" id="svg_27"/>
  <path d="m552,408.625c1.76344,-0.0116 1.76344,-0.0116 3.5625,-0.02344c3.9256,0.45502 7.56246,1.5234 10.4375,4.39844c0.3609,7.45865 0.3609,7.45865 -2,11c-3.35961,-0.06403 -6.55886,-0.40215 -9.88281,-0.84961c-3.93125,-0.40555 -5.7333,-0.3458 -9.36328,1.50195c-2.72874,2.3262 -4.8837,4.63301 -7.06641,7.47266c-0.67676,0.86883 -1.35352,1.73766 -2.05078,2.63281c-2.5408,3.48071 -2.7697,5.39201 -2.8103,9.66992c-0.01349,1.13458 -0.02698,2.26916 -0.04088,3.43811c-0.01044,1.23021 -0.02088,2.46042 -0.03163,3.72791c-0.03293,2.58203 -0.06614,5.16407 -0.09961,7.74609c-0.04858,4.08866 -0.09239,8.17735 -0.13111,12.26612c-0.03781,3.93358 -0.09113,7.86689 -0.14428,11.80029c-0.00842,1.23021 -0.01683,2.46042 -0.0255,3.72791c-0.02496,1.70186 -0.02496,1.70186 -0.05043,3.43811c-0.01031,1.00212 -0.02062,2.00425 -0.03124,3.03674c-0.27174,2.39099 -0.27174,2.39099 -2.27174,4.39099c-2.53125,0.26563 -2.53125,0.26563 -5.5,0.25c-0.97969,0.00516 -1.95938,0.01031 -2.96875,0.01563c-2.53125,-0.26563 -2.53125,-0.26563 -4.53125,-2.26563c-0.19848,-2.66962 -0.27274,-5.23551 -0.25879,-7.90625c-0.0035,-0.81638 -0.00701,-1.63276 -0.01062,-2.47388c-0.00882,-2.70671 -0.00296,-5.41316 0.00378,-8.11987c-0.00134,-1.87565 -0.00328,-3.7513 -0.00579,-5.62695c-0.00296,-3.93428 0.00135,-7.86847 0.01068,-11.80274c0.01139,-5.05106 0.00483,-10.1019 -0.00715,-15.15295c-0.00721,-3.87408 -0.00493,-7.74811 0.00026,-11.62219c0.00134,-1.8628 -0.00032,-3.72559 -0.00496,-5.58838c-0.00506,-2.60031 0.00264,-5.20026 0.0138,-7.80054c-0.00405,-0.77513 -0.0081,-1.55026 -0.01227,-2.34888c0.04253,-5.32884 0.04253,-5.32884 2.27106,-7.55737c2.56641,-0.23047 2.56641,-0.23047 5.5625,-0.1875c0.99129,0.00645 1.98258,0.01289 3.00391,0.01953c2.43359,0.16797 2.43359,0.16797 3.43359,1.16797c0.23193,1.51469 0.41215,3.03755 0.5625,4.5625c0.08379,0.82629 0.16758,1.65258 0.25391,2.50391c0.06058,0.63808 0.12117,1.27617 0.18359,1.93359c0.4357,-0.5427 0.87141,-1.08539 1.32031,-1.64453c0.59555,-0.71543 1.1911,-1.43086 1.80469,-2.16797c0.58008,-0.7077 1.16016,-1.41539 1.75781,-2.14453c4.56942,-4.40924 8.88059,-5.459 15.11719,-5.41797z" fill="#F6F6F6" id="svg_28"/>
  <path d="m667.9375,408.5625c1.03544,-0.02997 1.03544,-0.02997 2.0918,-0.06055c5.10051,0.00484 8.15123,1.13314 11.9707,4.49805c0.94515,2.93108 0.39993,4.85055 0,8c-0.66,0.99 -1.32,1.98 -2,3c-2.74286,-0.15784 -5.34872,-0.44405 -8.0625,-0.8125c-4.41487,-0.42741 -7.78474,-0.73606 -11.85156,1.19922c-2.39403,2.09374 -4.1996,4.04545 -6.08594,6.61328c-0.48727,0.5811 -0.97453,1.16219 -1.47656,1.76089c-5.12834,6.65601 -5.37687,12.33897 -5.29297,20.55161c-0.01134,1.25007 -0.02267,2.50014 -0.03435,3.78809c-0.02541,3.29447 -0.02601,6.58763 -0.01338,9.88214c0.01101,4.66752 -0.02738,9.33498 -0.05742,14.00238c-0.01308,2.4806 -0.01777,4.96126 -0.01346,7.44189c-0.00058,1.11206 -0.00116,2.22412 -0.00175,3.36988c0.00255,0.98323 0.0051,1.96646 0.00773,2.97949c-0.11784,2.22363 -0.11784,2.22363 -1.11784,3.22363c-1.80927,0.12488 -3.62396,0.17571 -5.4375,0.1875c-0.98871,0.01418 -1.97742,0.02836 -2.99609,0.04297c-2.56641,-0.23047 -2.56641,-0.23047 -4.56641,-2.23047c-0.18803,-2.71084 -0.2518,-5.31867 -0.22705,-8.02979c-0.00029,-0.82934 -0.00058,-1.65869 -0.00089,-2.51316c0.0014,-2.74881 0.01698,-5.49735 0.03263,-8.24611c0.00373,-1.90286 0.00657,-3.80573 0.00857,-5.70859c0.00765,-5.0142 0.0273,-10.02829 0.04941,-15.04245c0.02044,-5.11422 0.02959,-10.22846 0.03967,-15.34271c0.02147,-10.03912 0.05562,-20.07814 0.09766,-30.11719c2.48755,-1.24377 4.22655,-1.13306 7,-1.125c0.88687,-0.00258 1.77375,-0.00516 2.6875,-0.00781c2.3125,0.13281 2.3125,0.13281 4.3125,1.13281c0.59356,2.6486 0.74209,5.29197 1,8c0.4473,-0.47051 0.89461,-0.94102 1.35547,-1.42578c0.60457,-0.62262 1.20914,-1.24524 1.83203,-1.88672c0.88752,-0.92232 0.88752,-0.92232 1.79297,-1.86328c4.77085,-4.30946 8.6003,-5.32664 14.95703,-5.26172z" fill="#FBFBFB" id="svg_29"/>
  <path d="m1175.375,410.5c0.86625,0.495 1.7325,0.99 2.625,1.5c0.02687,1.81242 0.04634,3.62495 0.0625,5.4375c0.0116,1.00934 0.0232,2.01867 0.03516,3.05859c-0.09766,2.50391 -0.09766,2.50391 -1.09766,3.50391c-3.66345,0.13568 -6.50616,0.16461 -10,-1c-4.28359,-0.49426 -6.56737,-0.22025 -10.4375,1.75c-1.7923,1.46831 -1.7923,1.46831 -3.5625,3.25c-0.68216,0.63889 -1.36431,1.27778 -2.06714,1.93604c-9.20932,10.86282 -6.96561,25.27173 -6.80786,38.68896c0.01345,3.89335 0.01579,7.78641 0.009,11.67978c-0.00078,2.41282 0.01209,4.82568 0.03986,7.23834c0.00595,1.08228 0.0119,2.16456 0.01803,3.27963c0.01081,0.9542 0.02162,1.9084 0.03275,2.89151c-0.22464,2.28574 -0.22464,2.28574 -2.22464,4.28574c-2.56641,0.23047 -2.56641,0.23047 -5.5625,0.1875c-0.99129,-0.00645 -1.98258,-0.01289 -3.00391,-0.01953c-2.43359,-0.16797 -2.43359,-0.16797 -3.43359,-1.16797c-0.10045,-2.6725 -0.13617,-5.31919 -0.12939,-7.99219c-0.00176,-0.83734 -0.00351,-1.67469 -0.00531,-2.53741c-0.00442,-2.78182 -0.00148,-5.56358 0.00189,-8.3454c-0.00068,-1.92432 -0.00165,-3.84863 -0.0029,-5.77295c-0.00148,-4.03858 0.00068,-8.07714 0.00534,-12.11572c0.0057,-5.18902 0.00242,-10.37798 -0.00357,-15.56699c-0.00361,-3.97525 -0.00247,-7.95049 0.00012,-11.92575c0.00067,-1.91386 -0.00016,-3.82772 -0.00248,-5.74158c-0.00252,-2.66997 0.00132,-5.33986 0.00691,-8.00982c-0.00203,-0.799 -0.00405,-1.598 -0.00614,-2.42121c0.02127,-5.45672 0.02127,-5.45672 1.13553,-6.57098c1.80927,-0.12488 3.62396,-0.17571 5.4375,-0.1875c0.98871,-0.01418 1.97742,-0.02836 2.99609,-0.04297c2.56641,0.23047 2.56641,0.23047 4.56641,2.23047c0.39764,1.98821 0.73775,3.98944 1,6c0.53109,-0.48211 1.06219,-0.96422 1.60937,-1.46094c0.70641,-0.63164 1.41282,-1.26328 2.14063,-1.91406c0.69609,-0.62648 1.39219,-1.25297 2.10937,-1.89844c6.61962,-5.33918 16.75959,-5.58698 24.51563,-2.22656z" fill="#FCFCFC" id="svg_30"/>
  <path d="m227,746c141.57,0 283.14,0 429,0c0,0.99 0,1.98 0,3c-141.57,0 -283.14,0 -429,0c0,-0.99 0,-1.98 0,-3z" fill="#FFFFFF" id="svg_31"/>
  <path d="m833,743c141.57,0 283.14,0 429,0c0,0.99 0,1.98 0,3c-141.57,0 -283.14,0 -429,0c0,-0.99 0,-1.98 0,-3z" fill="#FFFFFF" id="svg_32"/>
  <path d="m918.9375,1186.6875c1.01965,-0.01676 2.0393,-0.03352 3.08984,-0.05078c4.64038,0.56709 7.79706,2.71977 10.72266,6.30078c3.49329,4.75476 3.57735,8.17018 3.25,14.0625c-2,2 -2,2 -4.52197,2.22705c-1.03689,-0.01047 -2.07378,-0.02095 -3.14209,-0.03174c-1.12149,-0.00644 -2.24297,-0.01289 -3.39844,-0.01953c-1.17563,-0.01676 -2.35125,-0.03351 -3.5625,-0.05078c-1.18336,-0.00902 -2.36672,-0.01805 -3.58594,-0.02734c-2.92989,-0.02363 -5.85937,-0.05657 -8.78906,-0.09766c0.25662,1.4401 0.53091,2.87707 0.8125,4.3125c0.15082,0.80051 0.30164,1.60102 0.45703,2.42578c0.81698,2.52956 1.67298,3.61308 3.73047,5.26172c5.67953,1.64002 10.45151,0.8495 16,-1c1.32,0 2.64,0 4,0c-0.0625,2.3125 -0.0625,2.3125 -1,5c-5.95046,3.9219 -13.07073,3.89467 -20,3c-3.44027,-1.66529 -5.8137,-3.57644 -8.25,-6.5c-0.50016,-0.58781 -1.00031,-1.17562 -1.51563,-1.78125c-2.69768,-3.75627 -2.43131,-7.56092 -2.48437,-12.03125c-0.02578,-1.29551 -0.05156,-2.59102 -0.07813,-3.92578c0.57317,-6.57092 3.45654,-10.48423 8.32813,-14.76172c3.32823,-2.08559 6.04023,-2.29776 9.9375,-2.3125z" fill="#F3F3F3" id="svg_33"/>
  <path d="m878.9375,1186.6875c1.01965,-0.01676 2.0393,-0.03352 3.08984,-0.05078c4.64038,0.56709 7.79706,2.71977 10.72266,6.30078c3.49329,4.75476 3.57735,8.17018 3.25,14.0625c-2,2 -2,2 -4.52197,2.22705c-1.03689,-0.01047 -2.07378,-0.02095 -3.14209,-0.03174c-1.12149,-0.00644 -2.24297,-0.01289 -3.39844,-0.01953c-1.17563,-0.01676 -2.35125,-0.03351 -3.5625,-0.05078c-1.18336,-0.00902 -2.36672,-0.01805 -3.58594,-0.02734c-2.92989,-0.02363 -5.85937,-0.05657 -8.78906,-0.09766c0.25662,1.4401 0.53091,2.87707 0.8125,4.3125c0.15082,0.80051 0.30164,1.60102 0.45703,2.42578c0.81698,2.52956 1.67298,3.61308 3.73047,5.26172c5.67953,1.64002 10.45151,0.8495 16,-1c1.32,0 2.64,0 4,0c-0.0625,2.3125 -0.0625,2.3125 -1,5c-5.95046,3.9219 -13.07073,3.89467 -20,3c-3.44027,-1.66529 -5.8137,-3.57644 -8.25,-6.5c-0.50016,-0.58781 -1.00031,-1.17562 -1.51563,-1.78125c-2.69768,-3.75627 -2.43131,-7.56092 -2.48437,-12.03125c-0.02578,-1.29551 -0.05156,-2.59102 -0.07813,-3.92578c0.57317,-6.57092 3.45654,-10.48423 8.32813,-14.76172c3.32823,-2.08559 6.04023,-2.29776 9.9375,-2.3125z" fill="#F3F3F3" id="svg_34"/>
  <path d="m651.9375,1186.6875c1.01965,-0.01676 2.0393,-0.03352 3.08984,-0.05078c4.64038,0.56709 7.79706,2.71977 10.72266,6.30078c3.49329,4.75476 3.57735,8.17018 3.25,14.0625c-2,2 -2,2 -4.52197,2.22705c-1.03689,-0.01047 -2.07378,-0.02095 -3.14209,-0.03174c-1.12149,-0.00644 -2.24297,-0.01289 -3.39844,-0.01953c-1.17563,-0.01676 -2.35125,-0.03351 -3.5625,-0.05078c-1.18336,-0.00902 -2.36672,-0.01805 -3.58594,-0.02734c-2.92989,-0.02363 -5.85937,-0.05657 -8.78906,-0.09766c0.25662,1.4401 0.53091,2.87707 0.8125,4.3125c0.15082,0.80051 0.30164,1.60102 0.45703,2.42578c0.81698,2.52956 1.67298,3.61308 3.73047,5.26172c5.67953,1.64002 10.45151,0.8495 16,-1c1.32,0 2.64,0 4,0c-0.0625,2.3125 -0.0625,2.3125 -1,5c-5.95046,3.9219 -13.07073,3.89467 -20,3c-3.44027,-1.66529 -5.8137,-3.57644 -8.25,-6.5c-0.50016,-0.58781 -1.00031,-1.17562 -1.51563,-1.78125c-2.69768,-3.75627 -2.43131,-7.56092 -2.48437,-12.03125c-0.02578,-1.29551 -0.05156,-2.59102 -0.07813,-3.92578c0.57317,-6.57092 3.45654,-10.48423 8.32813,-14.76172c3.32823,-2.08559 6.04023,-2.29776 9.9375,-2.3125z" fill="#F3F3F3" id="svg_35"/>
  <path d="m775,1186.625c1.01063,-0.00773 2.02125,-0.01547 3.0625,-0.02344c6.27751,0.85147 9.29673,4.64522 12.9375,9.39844c1.26238,2.52475 1.09856,4.312 1.0625,7.125c-0.00902,0.91008 -0.01805,1.82016 -0.02734,2.75781c-0.01161,0.69867 -0.02321,1.39735 -0.03516,2.11719c-2.66178,1.33089 -4.68739,1.11269 -7.66406,1.09766c-1.12149,-0.00323 -2.24297,-0.00645 -3.39844,-0.00977c-1.17563,-0.00838 -2.35125,-0.01676 -3.5625,-0.02539c-1.18336,-0.00451 -2.36672,-0.00902 -3.58594,-0.01367c-2.92974,-0.01182 -5.85937,-0.02829 -8.78906,-0.04883c0.45034,1.62723 0.91055,3.25174 1.375,4.875c0.25523,0.90492 0.51047,1.80984 0.77344,2.74219c0.71199,2.52851 0.71199,2.52851 2.85156,4.38281c6.10259,1.56996 11.0602,0.71147 17,-1c1.32,0 2.64,0 4,0c-0.0625,2.3125 -0.0625,2.3125 -1,5c-6.07196,4.00197 -12.94207,3.6557 -20,3c-5.22614,-1.67983 -7.89409,-4.51369 -11,-9c-2.6216,-6.49157 -3.39071,-14.18909 -0.75,-20.8125c4.00532,-7.2954 8.08721,-11.6288 16.75,-11.5625z" fill="#F4F4F4" id="svg_36"/>
  <path d="m825.875,422.25c6.90193,3.86508 10.58332,8.18986 13.125,15.75c0,2.31 0,4.62 0,7c-15.18,0 -30.36,0 -46,0c3.15425,-11.5656 5.21865,-16.83393 15,-23c5.60153,-1.86718 12.34353,-1.99183 17.875,0.25z" fill="#050505" id="svg_37"/>
  <path d="m736.35938,421.64844c6.10129,2.76686 10.24469,7.30589 13.01563,13.35156c0.625,3 0.625,3 0.625,10c-14.85,0 -29.7,0 -45.00001,0c0.9484,-8.53553 1.5452,-11.97285 7,-18c7.41502,-5.77794 15.01935,-7.91852 24.35938,-5.35156z" fill="#050505" id="svg_38"/>
  <path d="m621.375,1015.5c5.18707,3.0366 8.21535,7.87293 11,13.0625c0.625,2.4375 0.625,2.4375 0.625,9.4375c-14.85,0 -29.7,0 -45,0c0.99791,-8.98118 2.18463,-13.72419 8.84766,-19.64062c7.04207,-5.20306 16.35797,-6.44632 24.52734,-2.85938z" fill="#050505" id="svg_39"/>
  <path d="m742,1187c3.42625,2.02854 6.20704,4.41408 8,8c0.09787,2.31216 0.13078,4.62718 0.13281,6.94141c0.00096,0.68287 0.00192,1.36575 0.0029,2.06932c0.00068,1.44328 -0.00116,2.88657 -0.00534,4.32985c-0.00536,2.21662 -0.00005,4.43304 0.00635,6.64965c-0.00066,1.4004 -0.00194,2.80079 -0.00391,4.20118c-0.00113,1.28076 -0.00225,2.56152 -0.00342,3.8811c-0.12939,2.92749 -0.12939,2.92749 -1.12939,3.92749c-2.5,0.125 -2.5,0.125 -5,0c-1.81351,-1.81351 -1.1949,-4.63795 -1.24609,-7.08203c-0.03287,-1.24201 -0.06575,-2.48402 -0.09961,-3.76367c-0.06093,-2.63273 -0.11825,-5.26555 -0.17188,-7.89844c-0.05124,-1.86882 -0.05124,-1.86882 -0.10351,-3.77539c-0.02506,-1.14574 -0.05012,-2.29147 -0.07593,-3.47193c-0.29272,-2.90668 -0.64203,-4.62464 -2.30298,-7.00854c-3.5496,-1.1832 -5.27045,-1.33933 -8.6875,0.25c-1.14469,0.86625 -1.14469,0.86625 -2.3125,1.75c-0.79821,0.59808 -0.79821,0.59808 -1.61255,1.20825c-2.06134,2.66201 -1.8238,4.87841 -1.89917,8.20972c-0.05317,1.88042 -0.05317,1.88042 -0.10742,3.79883c-0.02256,1.31033 -0.04512,2.62066 -0.06836,3.9707c-0.03318,1.33532 -0.06767,2.67061 -0.10352,4.00586c-0.0826,3.2688 -0.15171,6.53732 -0.20898,9.80664c-1.99955,0.04254 -4.00042,0.04081 -6,0c-1,-1 -1,-1 -1.11353,-4.60181c0.00016,-1.60279 0.00586,-3.20559 0.01587,-4.80835c0.00142,-0.84203 0.00283,-1.68407 0.00429,-2.55162c0.00562,-2.70027 0.01817,-5.40047 0.03087,-8.10072c0.00501,-1.82617 0.00958,-3.65234 0.01367,-5.47852c0.01105,-4.48636 0.02833,-8.97265 0.04883,-13.45898c2.31,0 4.62,0 7,0c0.33,0.99 0.66,1.98 1,3c0.78375,-0.66 1.5675,-1.32 2.375,-2c4.28318,-2.81495 8.67487,-3.06186 13.625,-2z" fill="#F3F3F3" id="svg_40"/>
  <path d="m700,1187c3.42625,2.02854 6.20704,4.41408 8,8c0.09787,2.31216 0.13078,4.62718 0.13281,6.94141c0.00096,0.68287 0.00192,1.36575 0.0029,2.06932c0.00068,1.44328 -0.00116,2.88657 -0.00534,4.32985c-0.00536,2.21662 -0.00005,4.43304 0.00635,6.64965c-0.00066,1.4004 -0.00194,2.80079 -0.00391,4.20118c-0.00113,1.28076 -0.00225,2.56152 -0.00342,3.8811c-0.12939,2.92749 -0.12939,2.92749 -1.12939,3.92749c-2.5,0.125 -2.5,0.125 -5,0c-1.81351,-1.81351 -1.1949,-4.63795 -1.24609,-7.08203c-0.03287,-1.24201 -0.06575,-2.48402 -0.09961,-3.76367c-0.06093,-2.63273 -0.11825,-5.26555 -0.17188,-7.89844c-0.05124,-1.86882 -0.05124,-1.86882 -0.10351,-3.77539c-0.02506,-1.14574 -0.05012,-2.29147 -0.07593,-3.47193c-0.29272,-2.90668 -0.64203,-4.62464 -2.30298,-7.00854c-3.5496,-1.1832 -5.27045,-1.33933 -8.6875,0.25c-1.14469,0.86625 -1.14469,0.86625 -2.3125,1.75c-0.79821,0.59808 -0.79821,0.59808 -1.61255,1.20825c-2.06134,2.66201 -1.8238,4.87841 -1.89917,8.20972c-0.05317,1.88042 -0.05317,1.88042 -0.10742,3.79883c-0.02256,1.31033 -0.04512,2.62066 -0.06836,3.9707c-0.03318,1.33532 -0.06767,2.67061 -0.10352,4.00586c-0.0826,3.2688 -0.15171,6.53732 -0.20898,9.80664c-1.99955,0.04254 -4.00042,0.04081 -6,0c-1,-1 -1,-1 -1.11353,-4.60181c0.00016,-1.60279 0.00586,-3.20559 0.01587,-4.80835c0.00142,-0.84203 0.00283,-1.68407 0.00429,-2.55162c0.00562,-2.70027 0.01817,-5.40047 0.03087,-8.10072c0.00501,-1.82617 0.00958,-3.65234 0.01367,-5.47852c0.01105,-4.48636 0.02833,-8.97265 0.04883,-13.45898c2.31,0 4.62,0 7,0c0.33,0.99 0.66,1.98 1,3c0.78375,-0.66 1.5675,-1.32 2.375,-2c4.28318,-2.81495 8.67487,-3.06186 13.625,-2z" fill="#F3F3F3" id="svg_41"/>
  <path d="m595.7854,1173.88647c1.68743,0.00016 3.37486,0.00586 5.06226,0.01587c1.32964,0.00212 1.32964,0.00212 2.68614,0.00429c2.84293,0.00561 5.68579,0.01817 8.5287,0.03087c1.92252,0.00501 3.84505,0.00957 5.76758,0.01367c4.72334,0.01105 9.44661,0.02832 14.16992,0.04883c-0.33,1.65 -0.66,3.3 -1,5c-5.28,0 -10.56,0 -16,0c0.00785,2.12779 0.00785,2.12779 0.01587,4.29858c0.01804,5.24234 0.02956,10.48468 0.03906,15.72705c0.00504,2.27279 0.01188,4.54558 0.02051,6.81836c0.01207,3.25904 0.01779,6.51804 0.02222,9.7771c0.00516,1.02291 0.01032,2.04581 0.01564,3.09972c0.00011,1.41135 0.00011,1.41135 0.00023,2.85121c0.00222,0.83273 0.00444,1.66546 0.00672,2.52342c-0.12025,1.90456 -0.12025,1.90456 -1.12025,2.90456c-2.5,0.125 -2.5,0.125 -5,0c-1,-1 -1,-1 -1.12025,-2.90456c0.00333,-1.24909 0.00333,-1.24909 0.00672,-2.52342c0.00008,-0.9409 0.00016,-1.8818 0.00023,-2.85121c0.00516,-1.02291 0.01033,-2.04582 0.01564,-3.09972c0.00142,-1.0418 0.00283,-2.0836 0.00429,-3.15697c0.00562,-3.34224 0.01817,-6.68441 0.03087,-10.02662c0.00501,-2.25977 0.00958,-4.51953 0.01367,-6.7793c0.01105,-5.55276 0.02833,-11.10547 0.04883,-16.6582c-5.28,0 -10.56,0 -16,0c-0.33,-1.32 -0.66,-2.64 -1,-4c1,-1 1,-1 4.7854,-1.11353z" fill="#FAFAFA" id="svg_42"/>
  <path d="m852.1875,1188.5c0.89719,0.7425 0.89719,0.7425 1.8125,1.5c-0.33,1.65 -0.66,3.3 -1,5c-0.51562,-0.14438 -1.03125,-0.28875 -1.5625,-0.4375c-5.97164,-1.5627 -5.97164,-1.5627 -11.875,-0.625c-0.51563,0.35062 -1.03125,0.70125 -1.5625,1.0625c0.00309,2.88532 0.00309,2.88532 1,6c2.81185,2.10659 2.81185,2.10659 6.3125,3.625c7.74448,3.69446 7.74448,3.69446 10.6875,7.375c0.67583,4.12257 0.9446,6.45429 -1.24609,10.03906c-2.47448,2.999 -4.00578,4.71156 -7.75391,5.96094c-6.32189,0.51607 -11.53443,0.59577 -17,-3c-1,-1 -1,-1 -1.0625,-3.5625c0.02062,-0.80438 0.04125,-1.60875 0.0625,-2.4375c2.65838,0.45572 4.95712,0.98131 7.4375,2.0625c3.01673,1.10368 5.3723,1.15018 8.5625,0.9375c0.99,-0.495 0.99,-0.495 2,-1c0.92458,-2.88006 0.92458,-2.88006 1,-6c-2.13497,-2.7973 -4.70691,-3.91142 -7.875,-5.3125c-4.72805,-2.31564 -7.40155,-4.14841 -10.125,-8.6875c-0.61726,-3.45664 -0.79126,-5.65816 1.02734,-8.74219c5.10733,-6.48895 13.8643,-7.19116 21.16016,-3.75781z" fill="#F2F2F2" id="svg_43"/>
  <path d="m821.1875,1188.5c0.89719,0.7425 0.89719,0.7425 1.8125,1.5c-0.33,1.65 -0.66,3.3 -1,5c-0.495,-0.14438 -0.99,-0.28875 -1.5,-0.4375c-6.76973,-1.55147 -6.76973,-1.55147 -13.5,-0.5625c0,2.31 0,4.62 0,7c0.97582,0.47051 1.95164,0.94102 2.95703,1.42578c1.28532,0.62859 2.57046,1.25751 3.85547,1.88672c0.6426,0.30873 1.2852,0.61746 1.94727,0.93555c6.47854,3.18892 6.47854,3.18892 8.24023,5.75195c0.68978,3.39143 0.58741,6.59519 0,10c-2.55682,3.40909 -5.09504,5.38877 -9,7c-4.93554,0.56637 -9.49723,0.67471 -14.0625,-1.375c-1.9375,-1.625 -1.9375,-1.625 -3.9375,-3.625c0,-1.32 0,-2.64 0,-4c3.03724,0.4238 5.6409,0.83426 8.4375,2.125c3.46189,1.18211 6.02854,0.62257 9.5625,-0.125c1.41577,-1.18424 1.41577,-1.18424 1.0625,-4.5625c-0.03094,-1.70156 -0.03094,-1.70156 -0.0625,-3.4375c-0.99902,-0.47051 -1.99805,-0.94102 -3.02734,-1.42578c-1.30365,-0.62838 -2.60702,-1.25731 -3.91016,-1.88672c-0.65936,-0.30873 -1.31871,-0.61746 -1.99805,-0.93555c-1.72721,-0.84146 -3.4005,-1.79143 -5.06445,-2.75195c-0.33,-0.99 -0.66,-1.98 -1,-3c-0.66,0 -1.32,0 -2,0c-0.02698,-1.62491 -0.04639,-3.24995 -0.0625,-4.875c-0.0116,-0.90492 -0.0232,-1.80984 -0.03516,-2.74219c0.09766,-2.38281 0.09766,-2.38281 1.09766,-4.38281c0.66,0 1.32,0 2,0c0,-0.66 0,-1.32 0,-2c6.17184,-2.8064 12.96929,-3.42622 19.1875,-0.5z" fill="#F2F2F2" id="svg_44"/>
  <path d="m782.3125,1194.0625c1.6875,1.9375 1.6875,1.9375 2.6875,9.9375c-6.6,0 -13.2,0 -20,0c1,-7 1,-7 2.8125,-9.375c4.7334,-3.51624 9.2135,-2.99143 14.5,-0.5625z" fill="#010101" id="svg_45"/>
  <path d="m924,1193c2.4375,1.625 2.4375,1.625 4,4c0,2.31 0,4.62 0,7c-6.27,0 -12.54,0 -19,0c1.15094,-8.0566 1.15094,-8.0566 5,-11c3.80573,-1.26858 6.10569,-0.88818 10,0z" fill="#020202" id="svg_46"/>
  <path d="m884,1193c2.4375,1.625 2.4375,1.625 4,4c0,2.31 0,4.62 0,7c-6.27,0 -12.54,0 -19,0c1.15094,-8.0566 1.15094,-8.0566 5,-11c3.80573,-1.26858 6.10569,-0.88818 10,0z" fill="#020202" id="svg_47"/>
  <path d="m657,1193c2.4375,1.625 2.4375,1.625 4,4c0,2.31 0,4.62 0,7c-6.27,0 -12.54,0 -19,0c1.15094,-8.0566 1.15094,-8.0566 5,-11c3.80573,-1.26858 6.10569,-0.88818 10,0z" fill="#020202" id="svg_48"/>
  <polyline fill="none" stroke="#ffffff" stroke-width="5" opacity="NaN" points="-128.52964782714844,351.85660552978516 -129.989501953125,352.5865249633789 -129.989501953125,353.31644439697266 -130.71942901611328,354.0463638305664 -131.44935607910156,354.7763137817383 -131.44935607910156,354.7763137817383 -131.44935607910156,355.50623321533203 -131.44935607910156,355.50623321533203 -131.44935607910156,356.2361526489258 -132.17928314208984,356.2361526489258 -132.17928314208984,356.96607208251953 -132.17928314208984,357.6960220336914 -132.90921020507812,357.6960220336914 -132.90921020507812,359.1558609008789 -132.90921020507812,359.88578033447266 -133.6391372680664,359.88578033447266 -133.6391372680664,360.61573028564453 -133.6391372680664,360.61573028564453 -133.6391372680664,361.3456497192383 -134.3690643310547,362.07556915283203 -134.3690643310547,363.53543853759766 -134.3690643310547,363.53543853759766 -134.3690643310547,364.2653579711914 -134.3690643310547,364.99527740478516 -134.3690643310547,365.7251968383789 -134.3690643310547,365.7251968383789 -135.09899139404297,366.4551467895508 -135.09899139404297,366.4551467895508 -135.82891845703125,366.4551467895508 -135.82891845703125,367.18506622314453 -135.82891845703125,367.9149856567383 -136.55884552001953,368.64490509033203 -137.2887725830078,369.3748550415039 -138.74862670898438,370.10477447509766 -138.74862670898438,370.8346939086914 -138.74862670898438,371.56461334228516 -139.47855377197266,372.29456329345703 -140.20848083496094,372.29456329345703 -140.20848083496094,373.0244827270508 -140.93840789794922,373.0244827270508 -141.6683349609375,373.75440216064453 -141.6683349609375,374.4843215942383 -141.6683349609375,375.21424102783203 -142.39826202392578,375.21424102783203 -143.12818908691406,375.9441909790039 -143.12818908691406,376.67411041259766 -143.12818908691406,378.13394927978516 -143.12818908691406,378.13394927978516 -143.12818908691406,378.86389923095703 -143.85811614990234,378.86389923095703 -144.58804321289062,380.32373809814453 -144.58804321289062,381.0536575317383 -144.58804321289062,381.0536575317383 -144.58804321289062,381.78360748291016 -144.58804321289062,382.5135269165039 -144.58804321289062,383.24344635009766 -145.31796264648438,383.24344635009766 -145.31796264648438,383.9733657836914 -145.31796264648438,384.7033157348633 -145.31796264648438,385.43323516845703 -145.31796264648438,386.1631546020508 -146.04788970947266,386.89307403564453 -146.04788970947266,386.89307403564453 -146.04788970947266,386.89307403564453 -146.04788970947266,387.6230239868164 -146.04788970947266,388.35294342041016 -146.77781677246094,389.0828628540039 -147.50774383544922,389.0828628540039 -148.2376708984375,389.81278228759766 -148.96759796142578,390.54273223876953 -148.96759796142578,390.54273223876953 -149.69752502441406,391.2726516723633 -149.69752502441406,392.00257110595703 -150.42745208740234,392.00257110595703 -150.42745208740234,392.7324905395508 -151.15737915039062,392.7324905395508 -151.15737915039062,393.46244049072266 -151.8873062133789,393.46244049072266 -151.8873062133789,394.1923599243164 -151.8873062133789,394.92227935791016 -151.8873062133789,394.92227935791016 -151.8873062133789,395.6521987915039 -152.6172332763672,396.3821487426758 -153.34716033935547,397.11206817626953 -153.34716033935547,397.8419876098633 -153.34716033935547,398.57190704345703 -153.34716033935547,398.57190704345703 -153.34716033935547,400.7616958618164 -153.34716033935547,401.49161529541016 -153.34716033935547,401.49161529541016 -153.34716033935547,402.9514846801758 -153.34716033935547,403.68140411376953 -153.34716033935547,404.4113235473633 -153.34716033935547,404.4113235473633 -153.34716033935547,405.14124298095703 -153.34716033935547,405.8711929321289 -153.34716033935547,406.60111236572266 -153.34716033935547,407.3310317993164 -153.34716033935547,407.3310317993164 -154.07708740234375,407.3310317993164 -154.07708740234375,408.06095123291016 -154.80701446533203,408.79090118408203 -154.80701446533203,409.5208206176758 -154.80701446533203,410.25074005126953 -155.5369415283203,410.25074005126953 -155.5369415283203,410.25074005126953 -156.2668685913086,410.25074005126953 -156.2668685913086,410.9806594848633 -157.72672271728516,411.71060943603516 -157.72672271728516,412.4405288696289 -158.45664978027344,413.17044830322266 -159.18657684326172,413.17044830322266 -159.18657684326172,413.17044830322266 -159.91650390625,413.17044830322266 -159.91650390625,413.9003677368164 -160.64643096923828,413.9003677368164 -160.64643096923828,414.6303176879883 -160.64643096923828,415.36023712158203 -160.64643096923828,416.0901565551758 -160.64643096923828,416.0901565551758 -161.37635803222656,416.82007598876953 -161.37635803222656,417.5500259399414 -161.37635803222656,418.27994537353516 -161.37635803222656,419.0098648071289 -161.37635803222656,419.0098648071289 -161.37635803222656,419.73978424072266 -161.37635803222656,420.46973419189453 -161.37635803222656,421.1996536254883 -161.37635803222656,421.92957305908203 -161.37635803222656,421.92957305908203 -162.10628509521484,421.92957305908203 -162.10628509521484,422.6594924926758 -162.10628509521484,423.38944244384766 -162.83621215820312,424.1193618774414 -163.5661392211914,424.1193618774414 -163.5661392211914,424.84928131103516 -163.5661392211914,424.84928131103516 -163.5661392211914,425.5792007446289 -164.29606246948242,425.5792007446289 -164.29606246948242,426.30912017822266 -165.0259895324707,427.03907012939453 -165.0259895324707,427.7689895629883 -165.0259895324707,427.7689895629883 -165.75591659545898,428.49890899658203 -166.48584365844727,429.2288284301758 -166.48584365844727,429.95877838134766 -167.21577072143555,430.6886978149414 -167.21577072143555,430.6886978149414 -167.94569778442383,430.6886978149414 -169.4055519104004,431.41861724853516 -169.4055519104004,432.8784866333008 -169.4055519104004,432.8784866333008 -169.4055519104004,433.60840606689453 -170.13547897338867,433.60840606689453 -170.13547897338867,434.3383255004883 -170.13547897338867,435.06824493408203 -170.13547897338867,435.7981948852539 -170.13547897338867,436.52811431884766 -170.13547897338867,436.52811431884766 -170.13547897338867,437.2580337524414 -170.13547897338867,438.71790313720703 -170.13547897338867,439.4478225708008 -170.13547897338867,439.4478225708008 -170.13547897338867,440.17774200439453 -170.86540603637695,440.17774200439453 -170.86540603637695,440.9076614379883 -170.86540603637695,441.63761138916016 -170.86540603637695,442.3675308227539 -170.86540603637695,442.3675308227539 -170.86540603637695,443.09745025634766 -170.86540603637695,443.8273696899414 -170.86540603637695,444.5573196411133 -170.86540603637695,445.28723907470703 -171.59533309936523,445.28723907470703 -171.59533309936523,446.0171585083008 -171.59533309936523,447.4770278930664 -171.59533309936523,448.20694732666016 -171.59533309936523,448.20694732666016 -171.59533309936523,448.9368667602539 -172.32526016235352,448.9368667602539 -172.32526016235352,449.66678619384766 -172.32526016235352,450.39673614501953 -172.32526016235352,451.1266555786133 -173.78511428833008,451.85657501220703 -174.51504135131836,452.5864944458008 -175.24496841430664,454.0463638305664 -175.24496841430664,454.0463638305664 -175.24496841430664,454.0463638305664 -175.24496841430664,454.77628326416016 -175.24496841430664,455.5062026977539 -175.24496841430664,456.23612213134766 -175.24496841430664,456.96607208251953 -175.24496841430664,456.96607208251953 -175.24496841430664,458.42591094970703 -175.24496841430664,459.1558303833008 -175.24496841430664,459.88578033447266 -175.24496841430664,459.88578033447266 -175.24496841430664,460.6156997680664 -175.24496841430664,461.34561920166016 -175.24496841430664,462.0755386352539 -175.24496841430664,462.8054885864258 -175.97489547729492,462.8054885864258 -175.97489547729492,462.8054885864258 -175.97489547729492,463.53540802001953 -175.97489547729492,464.2653274536133 -175.97489547729492,465.7251663208008 -175.97489547729492,465.7251663208008 -176.7048225402832,466.45508575439453 -177.43474578857422,467.9149856567383 -178.1646728515625,468.64490509033203 -178.1646728515625,468.64490509033203 -178.89459991455078,468.64490509033203 -179.62452697753906,469.3748245239258 -180.35445404052734,469.3748245239258 -181.08438110351562,469.3748245239258 -181.08438110351562,470.10474395751953 -181.08438110351562,470.8346633911133 -181.8143081665039,470.8346633911133 -182.5442352294922,471.56458282470703 -182.5442352294922,471.56458282470703 -183.27416229248047,471.56458282470703 -184.00408935546875,471.56458282470703 -184.00408935546875,472.2945022583008 -184.00408935546875,473.0244827270508 -184.00408935546875,473.75440216064453 -184.00408935546875,474.4843215942383 -184.00408935546875,474.4843215942383 -184.00408935546875,475.9441604614258 -184.00408935546875,476.67407989501953 -184.00408935546875,477.4039993286133 -184.00408935546875,477.4039993286133 -184.00408935546875,478.13391876220703 -184.00408935546875,478.8638381958008 -184.00408935546875,479.5938186645508 -184.00408935546875,480.32373809814453 -184.00408935546875,480.32373809814453 -184.00408935546875,481.0536575317383 -184.00408935546875,481.78357696533203 -184.00408935546875,482.5134963989258 -184.00408935546875,483.24341583251953 -184.00408935546875,483.24341583251953 -184.00408935546875,483.9733352661133 -184.00408935546875,484.70325469970703 -184.00408935546875,485.43323516845703 -184.73401641845703,486.1631546020508 -185.4639434814453,486.1631546020508 -185.4639434814453,487.6229934692383 -186.1938705444336,489.0828323364258 -186.92379760742188,489.0828323364258 -186.92379760742188,489.81275177001953 -186.92379760742188,490.5426712036133 -187.65372276306152,490.5426712036133 -188.3836498260498,491.2726516723633 -188.3836498260498,492.00257110595703 -189.84350395202637,492.7324905395508 -189.84350395202637,494.1923294067383 -191.30335807800293,494.1923294067383 -191.30335807800293,494.92224884033203 -191.30335807800293,495.6521682739258 -192.0332851409912,495.6521682739258 -192.7632122039795,496.38208770751953 -192.7632122039795,497.11206817626953 -192.7632122039795,497.8419876098633 -192.7632122039795,498.57190704345703 -192.7632122039795,500.03174591064453 -192.7632122039795,500.7616653442383 -192.7632122039795,501.49158477783203 -192.7632122039795,502.2215042114258 -192.7632122039795,502.9514846801758 -192.7632122039795,503.68140411376953 -192.7632122039795,504.4113235473633 -193.49313735961914,504.4113235473633 -193.49313735961914,505.14124298095703 -193.49313735961914,505.8711624145508 -194.22306442260742,505.8711624145508 -194.22306442260742,506.60108184814453 -194.22306442260742,506.60108184814453 -194.22306442260742,507.3310012817383 -194.22306442260742,508.06092071533203 -194.22306442260742,508.7908401489258 -194.22306442260742,509.5208206176758 -194.22306442260742,509.5208206176758 -194.22306442260742,510.25074005126953 -194.22306442260742,510.9806594848633 -194.22306442260742,511.71057891845703 -194.22306442260742,512.4404983520508 -194.22306442260742,512.4404983520508 -194.22306442260742,513.1704177856445 -194.22306442260742,513.9003372192383 -194.22306442260742,514.630256652832 -194.22306442260742,515.360237121582 -194.22306442260742,515.360237121582 -194.22306442260742,516.0901565551758 -194.22306442260742,516.8200759887695 -194.22306442260742,517.5499954223633 -194.22306442260742,518.279914855957 -194.22306442260742,518.279914855957 -194.9529914855957,519.7397537231445 -194.9529914855957,520.4696731567383 -194.9529914855957,521.1996536254883 -194.9529914855957,521.1996536254883 -194.9529914855957,521.929573059082 -194.9529914855957,522.6594924926758 -194.9529914855957,523.3894119262695 -194.9529914855957,524.1193313598633 -194.9529914855957,524.1193313598633 -194.9529914855957,524.849250793457 -195.68291854858398,524.849250793457 -195.68291854858398,526.3090896606445 -195.68291854858398,527.0390701293945 -195.68291854858398,527.7689895629883 -195.68291854858398,528.498908996582 -195.68291854858398,529.2288284301758 -195.68291854858398,529.9587478637695 -195.68291854858398,530.6886672973633 -195.68291854858398,531.418586730957 -195.68291854858398,532.8784255981445 -196.41284561157227,532.8784255981445 -196.41284561157227,533.6084060668945 -197.14277267456055,533.6084060668945 -197.14277267456055,534.3383255004883 -197.14277267456055,535.068244934082 -197.14277267456055,535.7981643676758 -197.14277267456055,536.5280838012695 -197.87269973754883,537.2580032348633 -197.87269973754883,537.987922668457 -198.6026268005371,538.7178421020508 -198.6026268005371,538.7178421020508 -198.6026268005371,539.4478225708008 -198.6026268005371,539.4478225708008 -198.6026268005371,540.1777420043945 -198.6026268005371,540.9076614379883 -199.3325538635254,541.637580871582 -199.3325538635254,541.637580871582 -200.06247997283936,542.3675003051758 -200.06247997283936,543.0974197387695 -200.06247997283936,543.8273391723633 -200.06247997283936,544.557258605957 -200.79240703582764,544.557258605957 -201.5223331451416,544.557258605957 -201.5223331451416,545.287239074707 -201.5223331451416,546.0171585083008 -201.5223331451416,546.7470779418945 -202.25226020812988,546.7470779418945 -202.25226020812988,547.4769973754883 -202.25226020812988,547.4769973754883 -202.98218727111816,548.206916809082 -202.98218727111816,548.9368362426758 -202.98218727111816,549.6667556762695 -202.98218727111816,550.3966751098633 -202.98218727111816,550.3966751098633 -202.98218727111816,551.1266555786133 -202.98218727111816,551.856575012207 -202.98218727111816,552.5864944458008 -202.98218727111816,554.0463333129883 -203.71211433410645,554.0463333129883 -203.71211433410645,554.776252746582 -204.44204139709473,555.5061721801758 -204.44204139709473,556.2360916137695 -204.44204139709473,556.2360916137695 -204.44204139709473,556.9660110473633 -204.44204139709473,556.9660110473633 -204.44204139709473,557.6959915161133 -204.44204139709473,558.425910949707 -204.44204139709473,559.1558303833008 -204.44204139709473,559.1558303833008 -204.44204139709473,559.8857498168945 -205.1719675064087,559.8857498168945 -205.90189456939697,560.6156692504883 -205.90189456939697,561.345588684082 -205.90189456939697,562.0755081176758 -205.90189456939697,562.8054275512695 -205.90189456939697,564.2653274536133 -205.90189456939697,564.995246887207 -205.90189456939697,564.995246887207 -205.90189456939697,565.7251663208008 -205.90189456939697,567.1850051879883 -206.63182163238525,567.914924621582 -206.63182163238525,567.914924621582 -206.63182163238525,568.6448440551758 -206.63182163238525,569.3748245239258 -206.63182163238525,570.1047439575195 -206.63182163238525,570.8346633911133 -206.63182163238525,570.8346633911133 -206.63182163238525,571.564582824707 -206.63182163238525,572.2945022583008 -206.63182163238525,573.0244216918945 -206.63182163238525,573.7543411254883 -206.63182163238525,573.7543411254883 -206.63182163238525,574.484260559082 -207.36174869537354,575.214241027832 -207.36174869537354,576.6740798950195 -207.36174869537354,576.6740798950195 -207.36174869537354,577.4039993286133 -207.36174869537354,578.133918762207 -207.36174869537354,579.5937576293945 -207.36174869537354,579.5937576293945 -207.36174869537354,580.3236770629883 -207.36174869537354,581.0536575317383 -207.36174869537354,581.783576965332 -207.36174869537354,582.5134963989258 -208.09167528152466,582.5134963989258 -208.09167528152466,583.2434158325195 -208.09167528152466,583.9733352661133 -208.09167528152466,584.703254699707 -208.09167528152466,585.4331741333008 -208.09167528152466,585.4331741333008 -208.82160186767578,585.4331741333008 -208.82160186767578,586.1630935668945 -208.82160186767578,586.8930130004883 -208.82160186767578,587.6229934692383 -208.82160186767578,588.352912902832 -208.82160186767578,588.352912902832 -209.55152893066406,589.0828323364258 -209.55152893066406,589.8127517700195 -209.55152893066406,591.272590637207 -212.47123622894287,592.0025100708008 -213.93108999729156,593.4624099731445 -214.6610168814659,593.4624099731445 -214.6610168814659,592.0025100708008 -213.93108999729156,592.0025100708008 -213.93108999729156,592.7324295043945 -213.93108999729156,593.4624099731445 -213.93108999729156,594.1923294067383 -213.20116305351257,594.1923294067383 -213.20116305351257,594.922248840332 -213.20116305351257,594.922248840332 -211.01138257980347,594.1923294067383 -211.01138257980347,594.1923294067383 -211.01138257980347,593.4624099731445 -211.01138257980347,592.7324295043945 -210.28145551681519,592.0025100708008 -210.28145551681519,593.4624099731445 -210.28145551681519,594.1923294067383 -210.28145551681519,594.922248840332 -210.28145551681519,595.6521682739258 -210.28145551681519,596.3820877075195 -210.28145551681519,597.1120071411133 -210.28145551681519,597.1120071411133 -210.28145551681519,597.841926574707 -210.28145551681519,598.5718460083008 -210.28145551681519,599.3018264770508 -210.28145551681519,600.0317459106445 -210.28145551681519,600.7616653442383 -210.28145551681519,601.491584777832 -210.28145551681519,602.2215042114258 -210.28145551681519,602.9514236450195 -210.28145551681519,602.9514236450195 -210.28145551681519,603.6813430786133 -210.28145551681519,604.411262512207 -210.28145551681519,605.141242980957 -210.28145551681519,605.8711624145508 -210.28145551681519,606.6010818481445 -210.28145551681519,607.3310012817383 -210.28145551681519,608.7908401489258 -210.28145551681519,608.7908401489258 -210.28145551681519,610.2506790161133 -210.28145551681519,611.710578918457 -210.28145551681519,612.4404983520508 -210.28145551681519,613.1704177856445 -210.28145551681519,613.9003372192383 -210.28145551681519,614.630256652832 -210.28145551681519,614.630256652832 -210.28145551681519,615.3601760864258 -210.28145551681519,616.0900955200195 -210.28145551681519,616.8200149536133 -210.28145551681519,617.5499954223633 -226.33984661102295,614.630256652832 -227.7996997833252,610.980598449707 -233.6391143798828,600.0317459106445 -239.47852897644043,591.272590637207 -243.85809135437012,583.9733352661133 -249.69750595092773,572.2945022583008 -251.88728713989258,566.4550857543945 -254.07706832885742,562.0755081176758 -254.07706832885742,559.8857498168945 -255.53691864013672,556.2360916137695 -256.9967727661133,553.3164138793945 -257.72669982910156,549.6667556762695 -259.9164810180664,544.557258605957 -262.83618927001953,538.7178421020508 -263.5661163330078,532.8784255981445 -264.2960433959961,529.2288284301758 -264.2960433959961,524.1193313598633 -265.75589752197266,520.4696731567383 -268.6756019592285,509.5208206176758 -271.59531021118164,502.2215042114258 -273.0551643371582,494.92224884033203 -274.51501846313477,487.6229934692383 -276.7047996520996,481.0536575317383 -278.89458084106445,469.3748245239258 -280.35443115234375,464.2653274536133 -281.08435821533203,459.88578033447266 -281.8142852783203,456.96607208251953 -283.2741394042969,454.0463638305664 -283.2741394042969,452.5864944458008 -283.2741394042969,451.85657501220703 -283.2741394042969,451.1266555786133 -281.08435821533203,437.2580337524414 -275.9748725891113,427.7689895629883 -273.0551643371582,424.84928131103516 -269.4055290222168,421.92957305908203 -265.75589752197266,420.46973419189453 -262.83618927001953,418.27994537353516 -260.6464080810547,416.0901565551758 -258.45662689208984,414.6303176879883 -254.07706832885742,413.9003677368164 -251.1573600769043,411.71060943603516 -245.31794357299805,407.3310317993164 -243.12816429138184,405.8711929321289 -242.39823722839355,404.4113235473633 -241.66831016540527,403.68140411376953 -240.938383102417,402.9514846801758 -240.938383102417,402.2215347290039 -239.47852897644043,401.49161529541016 -239.47852897644043,400.7616958618164 -238.0186767578125,398.57190704345703 -236.55882263183594,398.57190704345703 -235.82889556884766,397.11206817626953 -234.3690414428711,395.6521987915039 -233.6391143798828,395.6521987915039 -232.90918731689453,394.1923599243164 -230.719407081604,393.46244049072266 -227.7996997833252,392.7324905395508 -227.7996997833252,391.2726516723633 -227.06977367401123,390.54273223876953 -225.60991954803467,390.54273223876953 -225.60991954803467,389.81278228759766 -224.8799924850464,389.81278228759766 -223.42013883590698,389.81278228759766 -222.69021224975586,389.81278228759766 -221.96028518676758,389.0828628540039 -221.23035860061646,388.35294342041016 -220.50043153762817,388.35294342041016 -219.77050495147705,388.35294342041016 -216.85079741477966,388.35294342041016 -214.6610168814659,388.35294342041016 -213.93108999729156,388.35294342041016 -213.20116305351257,388.35294342041016 -213.20116305351257,389.81278228759766 -213.20116305351257,390.54273223876953 -213.20116305351257,391.2726516723633 -213.20116305351257,392.00257110595703 -213.20116305351257,392.7324905395508 -213.20116305351257,393.46244049072266 -213.20116305351257,394.1923599243164 " id="svg_55" stroke-linecap="round"/>
 </g>

</svg>